<?xml version="1.0" encoding="UTF-8" standalone="no"?>
<!-- Created with Inkscape (http://www.inkscape.org/) -->

<svg
   width="320"
   height="240"
   viewBox="0 0 320 240"
   version="1.1"
   id="svg1"
   xml:space="preserve"
   inkscape:version="1.4.2 (ebf0e940, 2025-05-08)"
   sodipodi:docname="eyestack-right.svg"
   inkscape:export-filename="eyebg-l-neutral-11.png"
   inkscape:export-xdpi="96"
   inkscape:export-ydpi="96"
   xmlns:inkscape="http://www.inkscape.org/namespaces/inkscape"
   xmlns:sodipodi="http://sodipodi.sourceforge.net/DTD/sodipodi-0.dtd"
   xmlns:xlink="http://www.w3.org/1999/xlink"
   xmlns="http://www.w3.org/2000/svg"
   xmlns:svg="http://www.w3.org/2000/svg"><sodipodi:namedview
     id="namedview1"
     pagecolor="#505050"
     bordercolor="#eeeeee"
     borderopacity="1"
     inkscape:showpageshadow="0"
     inkscape:pageopacity="0"
     inkscape:pagecheckerboard="true"
     inkscape:deskcolor="#505050"
     inkscape:document-units="px"
     inkscape:zoom="3.603125"
     inkscape:cx="160"
     inkscape:cy="119.61839"
     inkscape:window-width="2192"
     inkscape:window-height="1171"
     inkscape:window-x="179"
     inkscape:window-y="25"
     inkscape:window-maximized="0"
     inkscape:current-layer="g5"
     showgrid="false"
     showguides="true"><sodipodi:guide
       position="160,155.34247"
       orientation="1,0"
       id="guide1"
       inkscape:locked="false" /><sodipodi:guide
       position="93.424658,120"
       orientation="0,-1"
       id="guide2"
       inkscape:locked="false" /></sodipodi:namedview><defs
     id="defs1" /><g
     inkscape:groupmode="layer"
     id="layer15"
     inkscape:label="base_color"
     style="display:inline"><rect
       style="fill:#556b2f;fill-opacity:1;stroke:#808080;stroke-opacity:0.899705"
       id="rect12"
       width="320"
       height="240"
       x="-321.85333"
       y="0.21333356"
       transform="scale(-1,1)" /></g><g
     inkscape:groupmode="layer"
     id="layer2"
     inkscape:label="testo"
     style="display:none;fill:#fbf394;fill-opacity:1"><ellipse
       style="fill:#fbf394;fill-opacity:1;stroke:#1d1d1d"
       id="bg_ellipse01"
       cx="75.934441"
       cy="186.83383"
       rx="180"
       ry="20"
       transform="rotate(-30)" /></g><g
     inkscape:groupmode="layer"
     id="g7"
     inkscape:label="face_background_10"
     style="display:inline"><path
       style="fill:#6b8e23;fill-opacity:1;stroke:#000000;stroke-opacity:1"
       d="m 263.70667,100 c 0,0 -23,-17 -46,-21 -36,-6 -74,-6 -110,9 -16.000005,7 -27.000005,16 -27.000005,16 0,0 38.000005,-17 58.000005,-21 23,-4 46,-4 69,-1 13,2 31,8 56,18 z"
       id="upper_lid_top_10"
       sodipodi:nodetypes="csscaac"
       inkscape:label="upper_lid_top" /><path
       style="display:inline;fill:#0d0b0a;fill-opacity:1;stroke:#000000;stroke-opacity:1"
       d="m 315.70667,61 c -50,-38 -95,-46 -146,-49 -32,-2 -65,3 -96.000005,12 -19,5 -37,12 -52,25 -25,18 -6,17 6,14 56,-16 60,-23 92.000005,-28 41,-5 84,-9 124,2 24,6 72,24 72,24 z"
       id="eyebrow_10"
       sodipodi:nodetypes="csassasc"
       inkscape:label="eyebrow" /></g><g
     inkscape:groupmode="layer"
     id="layer3"
     inkscape:label="face_background_11"
     style="display:inline"><path
       style="fill:#6b8e23;fill-opacity:1;stroke:#000000;stroke-opacity:1"
       d="m 263.70667,100 c 0,0 -23,-17 -46,-21 -36,-6 -74,-6 -110,9 -16.000005,7 -27.000005,16 -27.000005,16 0,0 38.000005,-17 58.000005,-21 23,-4 46,-4 69,-1 13,2 31,8 56,18 z"
       id="upper_lid_top_11"
       sodipodi:nodetypes="csscaac" /><path
       style="display:inline;fill:#0d0b0a;fill-opacity:1;stroke:#000000;stroke-opacity:1"
       d="m 315.70667,61 c -50,-38 -95,-46 -146,-49 -32,-2 -65,3 -96.000005,12 -19,5 -37,12 -52,25 -25,18 -6,17 6,14 56,-16 60,-23 92.000005,-28 41,-5 84,-9 124,2 24,6 72,24 72,24 z"
       id="eyebrow_11"
       sodipodi:nodetypes="csassasc"
       inkscape:label="eyebrow" /></g><g
     inkscape:groupmode="layer"
     id="layer5"
     inkscape:label="eyeball_bg"
     style="display:inline"
     sodipodi:insensitive="true"><ellipse
       style="display:inline;fill:#fefbe0;fill-opacity:1;stroke:#1d1d1d;stroke-width:0.982661"
       id="sclera"
       cx="161.85362"
       cy="164.85619"
       rx="110"
       ry="64"
       inkscape:label="sclera"
       sodipodi:insensitive="true" /></g><g
     inkscape:groupmode="layer"
     id="layer9"
     inkscape:label="inner_eye_11"
     style="display:none"><path
       id="iris_11"
       style="display:inline;fill:#2affd5;fill-opacity:1;stroke:#1d1d1d;stroke-width:4;stroke-dasharray:none;stroke-opacity:1"
       d="m 226,159 c -1,41 -30,69 -67,69 -37,0 -65,-31 -67,-69 -2,-37 30,-69 67,-69 37,0 68,31 67,69 z"
       sodipodi:nodetypes="sssss" /><path
       style="display:inline;fill:#2f4f4f;fill-opacity:1;stroke:none;stroke-opacity:0.899705"
       d="m 94,165 c 0,0 23,-22 38,-26 19,-6 41,-4 60,2 13,4 35,24 35,24 C 228,143 216.18729,87.889114 157.18729,89.889114 82.187289,92.889114 94,165 94,165 Z"
       id="iris_shadow_top_11"
       sodipodi:nodetypes="caacsc"
       inkscape:label="iris_shadow_top" /><path
       id="pupil_11"
       style="display:inline;fill:#0a0a0a;stroke-width:1.15464"
       d="m 160,189 c -15,0 -28,-15 -28,-31 0,-15 13,-27 29,-27 15,0 27,14 27,27 0,14 -13,31 -28,31 z"
       inkscape:label="pupil"
       sodipodi:nodetypes="sssas" /><path
       id="glint_sm_11"
       style="display:inline;fill:#ffffff;fill-opacity:1;stroke-width:0.849148"
       d="m 150,173 c -2,6 -4,9 -11,11 -7,2 -11,-5 -7,-12 4,-7 2,-5 10,-7 8,-2 10,2 8,8 z"
       sodipodi:nodetypes="zzzzz"
       inkscape:label="glint_sm" /><path
       id="glint_lg_11"
       style="display:inline;fill:#ffffff;fill-opacity:1;stroke-width:0.892652"
       d="m 196,148 c -1,8 -11,17 -18,19 -13,4 -19,-11 -18,-19 2,-9 15,-14 23,-13 12,2 13,5 13,13 z"
       sodipodi:nodetypes="sssas"
       inkscape:label="glint_lg" /></g><g
     inkscape:groupmode="layer"
     id="g6"
     inkscape:label="inner_eye_10"
     style="display:none"><path
       id="iris_10"
       style="display:inline;fill:#2affd5;fill-opacity:1;stroke:#1d1d1d;stroke-width:3.04994;stroke-dasharray:none;stroke-opacity:1"
       d="m 153,158 c -1,35 -20,59 -45,59 -25,0 -44,-27 -45,-59 -1,-32 20,-59 45,-59 25,0 46,27 45,59 z"
       sodipodi:nodetypes="sssss"
       inkscape:label="iris" /><path
       style="display:inline;fill:#2f4f4f;fill-opacity:1;stroke:none;stroke-width:0.762485;stroke-opacity:0.899705"
       d="m 62,164 c 0,0 16,-19 26,-22 13,-5 28,-3 41,2 9,3 24,21 24,21 1,-19 -5,-63 -45,-61 -42,2 -47,30 -46,60 z"
       id="iris_shadow_top_10"
       sodipodi:nodetypes="caacsc"
       inkscape:label="iris_shadow_top" /><path
       id="pupil_10"
       style="display:inline;fill:#0a0a0a;stroke-width:0.880395"
       d="m 103,183 c -10,0 -19,-13 -19,-27 0,-13 9,-23 20,-23 10,0 18,12 18,23 0,12 -9,27 -19,27 z"
       inkscape:label="pupil"
       sodipodi:nodetypes="sssas" /><path
       id="glint_sm_10"
       style="display:inline;fill:#ffffff;fill-opacity:1;stroke-width:0.647462"
       d="m 97,173 c -1,5 -3,8 -7,9 -5,2 -7,-4 -5,-10 3,-6 3,-4 7,-6 4,-2 7,2 5,7 z"
       sodipodi:nodetypes="zzzzz"
       inkscape:label="glint_sm" /><path
       id="glint_lg_10"
       style="display:inline;fill:#ffffff;fill-opacity:1;stroke-width:0.680634"
       d="m 131,142 c -3,6 -7,15 -12,16 -9,3 -13,-9 -12,-16 1,-8 10,-11 16,-11 10,0 12,3 8,11 z"
       sodipodi:nodetypes="sssas"
       inkscape:label="glint_lg" /></g><g
     inkscape:groupmode="layer"
     id="g5"
     inkscape:label="inner_eye_12"
     style="display:none"><path
       id="iris_12"
       style="display:inline;fill:#2affd5;fill-opacity:1;stroke:#1d1d1d;stroke-width:3.04994;stroke-dasharray:none;stroke-opacity:1"
       d="m 170.70667,158 c 1,35 20,59 45,59 25,0 44,-27 45,-59 1,-32 -20,-59 -45,-59 -25,0 -46,27 -45,59 z"
       sodipodi:nodetypes="sssss"
       inkscape:label="iris" /><path
       style="display:inline;fill:#2f4f4f;fill-opacity:1;stroke:none;stroke-width:0.762485;stroke-opacity:0.899705"
       d="m 261.70667,164 c 0,0 -16,-19 -26,-22 -13,-5 -28,-3 -41,2 -9,3 -24,21 -24,21 -1,-19 5,-63 45,-61 42,2 47,30 46,60 z"
       id="iris_shadow_top_12"
       sodipodi:nodetypes="caacsc"
       inkscape:label="iris_shadow_top" /><path
       id="pupil_12"
       style="display:inline;fill:#0a0a0a;stroke-width:0.880395"
       d="m 221,183 c 10,0 19,-13 19,-27 0,-13 -9,-23 -20,-23 -10,0 -18,12 -18,23 0,12 9,27 19,27 z"
       inkscape:label="pupil"
       sodipodi:nodetypes="sssas" /><path
       id="glint_sm_12"
       style="display:inline;fill:#ffffff;fill-opacity:1;stroke-width:0.647462"
       d="m 213,168 c -1,5 -3,8 -7,9 -5,2 -7,-4 -5,-10 3,-6 3,-4 7,-6 4,-2 7,2 5,7 z"
       sodipodi:nodetypes="zzzzz"
       inkscape:label="glint_sm" /><path
       id="glint_lg_12"
       style="display:inline;fill:#ffffff;fill-opacity:1;stroke-width:0.680634"
       d="m 247,137 c -3,6 -7,15 -12,16 -9,3 -13,-9 -12,-16 1,-8 10,-11 16,-11 10,0 12,3 8,11 z"
       sodipodi:nodetypes="sssas"
       inkscape:label="glint_lg" /></g><g
     inkscape:groupmode="layer"
     id="layer4"
     inkscape:label="upper_lid_neutral"
     style="display:inline"><path
       id="upper_lid_shadow_neutral"
       style="display:inline;fill:#1d1c4f;fill-opacity:1;stroke:none;stroke-opacity:1"
       d="m 160.70667,96 c 32.32169,-1.042138 64,6 94,24 19,11 38,27 38,27 v 0 c 2,1 7,24 -49,61 0,0 18,-23 23,-36 2,-6 6,-12 3,-18 -9,-20 -34,-29 -55,-34 -40,-9 -82,1 -121.000005,13 -16,5 -44,25 -44,25 0,0 27.776356,-30.5213 45.374675,-40.65655 C 115.01481,105.86334 137.71565,96.741292 160.70667,96 Z"
       sodipodi:nodetypes="accscaaaacaa"
       inkscape:label="upper_lid_shadow" /><path
       style="display:inline;fill:#73369a;fill-opacity:1;stroke:#000000;stroke-width:1;stroke-dasharray:none;stroke-opacity:1"
       d="m 260.70667,102 c -23,-17 -62,-25 -95,-23 -34,2 -70.000005,13 -95.000005,35 -12,11 -22,43 -22,43 0,0 32,-32 52.000005,-42 20,-10 44,-16 66,-17 26,-1 51,6 75,16 19,8 51,34 51,34 0,0 -15,-35 -32,-46 z"
       id="upper_lid_neutral"
       sodipodi:nodetypes="saacaaacs"
       inkscape:label="upper_lid" /></g><g
     inkscape:groupmode="layer"
     id="layer6"
     inkscape:label="lower_lid_neutral"><path
       style="display:inline;fill:#6b8e23;fill-opacity:1;stroke:#000000;stroke-opacity:1"
       d="m 235.70667,214 c 0,0 -52,19 -79,18 -26,0 -76.000005,-20 -76.000005,-20 11,0 23.000005,5 36.000005,0 14,-4 32,-8 55,-6 23,2 30,0 64,8 z"
       id="lower_lid_neutral"
       sodipodi:nodetypes="caczzc"
       inkscape:label="lower_lid" /></g><g
     inkscape:label="Layer 1"
     inkscape:groupmode="layer"
     id="layer1"
     style="display:none"><image
       width="320"
       height="240"
       preserveAspectRatio="none"
       xlink:href="../new-expressions/vector-eyestack-l.png"
       id="image1"
       x="0"
       y="0"
       style="display:inline" /></g></svg>
