<?xml version="1.0" encoding="UTF-8" standalone="no"?>
<!-- Created with Inkscape (http://www.inkscape.org/) -->

<svg
   width="320"
   height="240"
   viewBox="0 0 320 240"
   version="1.1"
   id="svg1"
   xml:space="preserve"
   inkscape:version="1.4.2 (ebf0e940, 2025-05-08)"
   inkscape:export-filename="memories/eyestack-main-corners.png"
   inkscape:export-xdpi="96"
   inkscape:export-ydpi="96"
   sodipodi:docname="eyestack-main.svg"
   xmlns:inkscape="http://www.inkscape.org/namespaces/inkscape"
   xmlns:sodipodi="http://sodipodi.sourceforge.net/DTD/sodipodi-0.dtd"
   xmlns="http://www.w3.org/2000/svg"
   xmlns:svg="http://www.w3.org/2000/svg"><sodipodi:namedview
     id="namedview1"
     pagecolor="#505050"
     bordercolor="#eeeeee"
     borderopacity="1"
     inkscape:showpageshadow="0"
     inkscape:pageopacity="0"
     inkscape:pagecheckerboard="true"
     inkscape:deskcolor="#505050"
     inkscape:document-units="px"
     inkscape:zoom="4.0416667"
     inkscape:cx="159.95876"
     inkscape:cy="159.58763"
     inkscape:window-width="2352"
     inkscape:window-height="1147"
     inkscape:window-x="0"
     inkscape:window-y="25"
     inkscape:window-maximized="0"
     inkscape:current-layer="g_upper_lid_11"
     showgrid="false"
     showguides="true"><sodipodi:guide
       position="160,155.34247"
       orientation="1,0"
       id="guide1"
       inkscape:locked="false" /><sodipodi:guide
       position="93.424658,120"
       orientation="0,-1"
       id="guide2"
       inkscape:locked="false" /><sodipodi:guide
       position="130.66667,84"
       orientation="0,-1"
       id="guide3"
       inkscape:locked="false" /><sodipodi:guide
       position="272.65979,156.61856"
       orientation="1,0"
       id="guide4"
       inkscape:locked="false" /><sodipodi:guide
       position="52.948454,193.48454"
       orientation="1,0"
       id="guide5"
       inkscape:locked="false" /><sodipodi:guide
       position="30.43299,223.6701"
       orientation="1,0"
       id="guide6"
       inkscape:locked="false" /><sodipodi:guide
       position="43.051546,211.79381"
       orientation="1,0"
       id="guide7"
       inkscape:locked="false" /><sodipodi:guide
       position="282.06186,161.31959"
       orientation="1,0"
       id="guide8"
       inkscape:locked="false" /><sodipodi:guide
       position="17.814433,67.051546"
       orientation="0,-1"
       id="guide9"
       inkscape:locked="false" /><sodipodi:guide
       position="21.773196,62.845361"
       orientation="0,-1"
       id="guide10"
       inkscape:locked="false" /><sodipodi:guide
       position="25.484536,114.30928"
       orientation="1,0"
       id="guide11"
       inkscape:locked="false" /><sodipodi:guide
       position="1.9793814,90.556701"
       orientation="0,-1"
       id="guide12"
       inkscape:locked="false" /><sodipodi:guide
       position="15.587629,181.1134"
       orientation="0,-1"
       id="guide13"
       inkscape:locked="false" /><sodipodi:guide
       position="304.3299,122.2268"
       orientation="1,0"
       id="guide14"
       inkscape:locked="false" /></sodipodi:namedview><defs
     id="defs1" />
<g
     inkscape:groupmode="layer"
     id="g_base_color"
     inkscape:label="g_neutral_bg_color"
     style="display:inline"
     sodipodi:insensitive="true"><rect
       style="fill:#556b2f;fill-opacity:1;stroke:#808080;stroke-opacity:0.899705"
       id="rect12"
       width="320"
       height="240"
       x="0"
       y="0"
       inkscape:label="color_rect1" /></g><g
     inkscape:groupmode="layer"
     id="g_surpise_bg_color"
     inkscape:label="g_surpise_bg_color"
     style="display:none"><rect
       style="display:inline;fill:#9540bf;fill-opacity:1;stroke:#808080;stroke-opacity:0.899705"
       id="rect1"
       width="320"
       height="240"
       x="0"
       y="0"
       inkscape:label="color_rect2" /></g><g id="g_symmetric_testo" inkscape:groupmode="layer" inkscape:label="g_symmetric_testo"/>
<g id="g_face_background_11" inkscape:groupmode="layer" inkscape:label="g_face_background_11">
    <path id="eyebrow" d="M312 61C262 23 217 15 166 12C134 10 101 15 70 24C51 29 33 36 18 49C-7 67 12 66 24 63C80 47 84 40 116 35C157 30 200 26 240 37C264 43 312 61 312 61Z" style="display:inline;fill:#0d0b0a;fill-opacity:1;stroke:#000000;stroke-opacity:1" nodetypes="csassasc" label="eyebrow"/>
</g>
<g
     inkscape:groupmode="layer"
     id="g_eyeball_bg"
     inkscape:label="g_eyeball_bg"
     style="display:inline"
     sodipodi:insensitive="true"><ellipse
       style="display:inline;fill:#fefbe0;fill-opacity:1;stroke:#1d1d1d;stroke-width:0.982661"
       id="sclera"
       cx="162.85362"
       cy="156.18951"
       rx="110"
       ry="82"
       inkscape:label="sclera" /></g><g
     inkscape:groupmode="layer"
     id="g_inner_eye_11"
     inkscape:label="g_inner_eye_11"
     style="display:inline"><path
       id="iris_11"
       style="display:inline;fill:#2affd5;fill-opacity:1;stroke:#1d1d1d;stroke-width:4;stroke-dasharray:none;stroke-opacity:1"
       d="m 226,159 c -1,41 -30,69 -67,69 -37,0 -65,-31 -67,-69 -2,-37 30,-69 67,-69 37,0 68,31 67,69 z"
       sodipodi:nodetypes="sssss"
       inkscape:label="iris" /><path
       style="display:inline;fill:#2f4f4f;fill-opacity:1;stroke:none;stroke-opacity:0.899705"
       d="m 92,160 c 0,0 26,-18 40,-21 20,-4 41,-4 60,2 13,4 35,24 35,24 1,-22 -6,-79 -68,-76 -71,3 -68,71 -68,71 z"
       id="iris_shadow_top_11"
       sodipodi:nodetypes="caacsc"
       inkscape:label="iris_shadow_top" /><path
       id="pupil_11"
       style="display:inline;fill:#0a0a0a;stroke-width:1.15464"
       d="m 160,189 c -15,0 -28,-15 -28,-31 0,-15 13,-27 29,-27 15,0 27,14 27,27 0,14 -13,31 -28,31 z"
       inkscape:label="pupil"
       sodipodi:nodetypes="sssas" /><path
       id="glint_sm_11"
       style="display:inline;fill:#ffffff;fill-opacity:1;stroke-width:0.849148"
       d="m 150,173 c -2,6 -4,9 -11,11 -7,2 -11,-5 -7,-12 4,-7 2,-5 10,-7 8,-2 10,2 8,8 z"
       sodipodi:nodetypes="zzzzz"
       inkscape:label="glint_sm" /><path
       id="glint_lg_11"
       style="display:inline;fill:#ffffff;fill-opacity:1;stroke-width:0.892652"
       d="m 196,148 c -1,8 -11,17 -18,19 -13,4 -19,-11 -18,-19 2,-9 15,-14 23,-13 12,2 13,5 13,13 z"
       sodipodi:nodetypes="sssas"
       inkscape:label="glint_lg" /></g>

<g id="g_inner_eye_11_0_to_00" inkscape:groupmode="layer" inkscape:label="g_inner_eye_11_0_to_00" style="display:none">
    <path id="iris_11_0_00" d="M197.33333333333334 156C188.33333333333334 191.66666666666666 159.33333333333334 212 129.66666666666666 207C100 202 84 171.33333333333334 90 138C96 105.66666666666667 128 82 157.66666666666666 87C187.33333333333334 92 206 123.33333333333333 197.33333333333334 156Z" label="iris" style="display:inline;fill:#2affd5;fill-opacity:1;stroke:#1d1d1d;stroke-width:4;stroke-dasharray:none;stroke-opacity:1" nodetypes="sssss"/>
    <path id="iris_shadow_top_11_0_00" d="M89.33333333333333 139.33333333333334C89.33333333333333 139.33333333333334 112.33333333333333 124.33333333333334 124.66666666666667 122C141.33333333333334 119 158.66666666666666 119.33333333333333 174.33333333333334 124.33333333333334C186 128 206 145 206 145C206 122.66666666666667 198 82 150.66666666666666 83.33333333333333C95.66666666666667 85 88.66666666666667 139.33333333333334 88.66666666666667 139.33333333333334Z" label="iris_shadow_top" style="display:inline;fill:#2f4f4f;fill-opacity:1;stroke:none;stroke-opacity:0.899705" nodetypes="caacsc"/>
    <path id="pupil_11_0_00" d="M136.33333333333334 169.66666666666666C124.33333333333334 167.66666666666666 117 152.66666666666666 120.33333333333333 139C123.33333333333333 126 136.33333333333334 117.33333333333333 149 119.33333333333333C161 121.33333333333333 167.66666666666666 135.33333333333334 165 146.33333333333334C162 158.66666666666666 148.33333333333334 171.66666666666666 136.33333333333334 169.66666666666666Z" label="pupil" style="display:inline;fill:#0a0a0a;stroke-width:1.15464" nodetypes="sssas"/>
    <path id="glint_sm_11_0_00" d="M128.33333333333334 161C125.66666666666667 165.33333333333334 123.66666666666667 165.66666666666666 119.66666666666667 166C115.66666666666667 166.33333333333334 113.33333333333333 161.33333333333334 117 156C120.66666666666667 150.66666666666666 121 153 125.66666666666667 153.33333333333334C130 153.33333333333334 131 156.66666666666666 128.33333333333334 161Z" nodetypes="zzzzz" label="glint_sm" style="display:inline;fill:#ffffff;fill-opacity:1;stroke-width:0.849148"/>
    <path id="glint_lg_11_0_00" d="M175 130.66666666666666C174 137 166 144 160.33333333333334 145.33333333333334C150 148 145.33333333333334 136.66666666666666 146.33333333333334 130.33333333333334C148.33333333333334 123.66666666666667 158.33333333333334 119 164.66666666666666 120C173.66666666666666 121.33333333333333 175 124 175 130.66666666666666Z" style="display:inline;fill:#ffffff;fill-opacity:1;stroke-width:0.892652" nodetypes="sssas" label="glint_lg"/>
</g>

<g id="g_inner_eye_11_0_to_01" inkscape:groupmode="layer" inkscape:label="g_inner_eye_11_0_to_01" style="display:none">
    <path id="iris_11_0_01" d="M226 151.66666666666666C225 191 196 217.66666666666666 159 217.66666666666666C122 217.66666666666666 94 188 92 151.66666666666666C90 116.33333333333333 122 85.66666666666667 159 85.66666666666667C196 85.66666666666667 227 115.33333333333333 226 151.66666666666666Z" label="iris" style="display:inline;fill:#2affd5;fill-opacity:1;stroke:#1d1d1d;stroke-width:4;stroke-dasharray:none;stroke-opacity:1" nodetypes="sssss"/>
    <path id="iris_shadow_top_11_0_01" d="M92.33333333333333 156.33333333333334C92.33333333333333 156.33333333333334 117.66666666666667 136.33333333333334 132.33333333333334 132.66666666666666C152 128 173.33333333333334 128.33333333333334 192 134.66666666666666C205.33333333333334 139 226.66666666666666 160 226.66666666666666 160C227.66666666666666 138 221.66666666666666 82.66666666666667 158 84.33333333333333C86 86 91.33333333333333 156.33333333333334 91.33333333333333 156.33333333333334Z" label="iris_shadow_top" style="display:inline;fill:#2f4f4f;fill-opacity:1;stroke:none;stroke-opacity:0.899705" nodetypes="caacsc"/>
    <path id="pupil_11_0_01" d="M159.66666666666666 173.33333333333334C144.66666666666666 173.33333333333334 131.66666666666666 159.33333333333334 131.66666666666666 144.66666666666666C131.66666666666666 130.66666666666666 144.66666666666666 119.66666666666667 160.66666666666666 119.66666666666667C175.66666666666666 119.66666666666667 187.66666666666666 132.66666666666666 187.66666666666666 144.66666666666666C187.66666666666666 157.66666666666666 174.66666666666666 173.33333333333334 159.66666666666666 173.33333333333334Z" label="pupil" style="display:inline;fill:#0a0a0a;stroke-width:1.15464" nodetypes="sssas"/>
    <path id="glint_sm_11_0_01" d="M148 160.33333333333334C146 166.33333333333334 144 169.33333333333334 137 171.33333333333334C130 173.33333333333334 126.66666666666667 167.33333333333334 130.66666666666666 160.33333333333334C134.66666666666666 153.33333333333334 132 155 140 153C148 151 150 154.33333333333334 148 160.33333333333334Z" nodetypes="zzzzz" label="glint_sm" style="display:inline;fill:#ffffff;fill-opacity:1;stroke-width:0.849148"/>
    <path id="glint_lg_11_0_01" d="M194 132C193 139.33333333333334 185.33333333333334 145.66666666666666 179.33333333333334 147.33333333333334C168 151 162 138.66666666666666 163.66666666666666 131.66666666666666C166.33333333333334 123.66666666666667 175.66666666666666 120 182.33333333333334 120.66666666666667C191.66666666666666 122 194 124.66666666666667 194 131.66666666666666Z" style="display:inline;fill:#ffffff;fill-opacity:1;stroke-width:0.892652" nodetypes="sssas" label="glint_lg"/>
</g>

<g id="g_inner_eye_11_0_to_02" inkscape:groupmode="layer" inkscape:label="g_inner_eye_11_0_to_02" style="display:none">
    <path id="iris_11_0_02" d="M230.66666666666666 138.33333333333334C238 174 220.33333333333334 202.33333333333334 190.33333333333334 207.66666666666666C160.33333333333331 213 131.66666666666666 190 122.33333333333333 157.33333333333334C113.33333333333333 125.66666666666667 132.66666666666666 93.33333333333333 162.66666666666666 88C192.66666666666666 82.66666666666667 223.66666666666666 105.33333333333333 230.66666666666666 138.33333333333334Z" label="iris" style="display:inline;fill:#2affd5;fill-opacity:1;stroke:#1d1d1d;stroke-width:4;stroke-dasharray:none;stroke-opacity:1" nodetypes="sssss"/>
    <path id="iris_shadow_top_11_0_02" d="M115.33333333333333 143.33333333333334C115.33333333333333 143.33333333333334 138.33333333333334 127.66666666666667 151 124.66666666666667C167.33333333333334 121 184.66666666666666 121 200.66666666666666 125.66666666666667C212.66666666666666 128.66666666666666 233.66666666666666 145 233.66666666666666 145C230 125.66666666666667 219.66666666666666 82 170 84.66666666666667C111 87 114.66666666666666 143.33333333333334 114.66666666666666 143.33333333333334Z" label="iris_shadow_top" style="display:inline;fill:#2f4f4f;fill-opacity:1;stroke:none;stroke-opacity:0.899705" nodetypes="caacsc"/>
    <path id="pupil_11_0_02" d="M185.33333333333334 171.66666666666666C173.33333333333334 173.66666666666666 159.66666666666666 162.66666666666666 156.33333333333334 148.66666666666666C153.33333333333334 135.66666666666666 161.33333333333334 123.33333333333333 174.33333333333334 121C186.33333333333334 119 199 129.33333333333334 201.66666666666666 140.66666666666666C204.33333333333334 152.66666666666666 197.33333333333334 169.33333333333334 185.33333333333334 171.66666666666666Z" label="pupil" style="display:inline;fill:#0a0a0a;stroke-width:1.15464" nodetypes="sssas"/>
    <path id="glint_sm_11_0_02" d="M171 156.33333333333334C169.33333333333334 161.66666666666666 167.33333333333334 164.33333333333334 161 166.33333333333334C154.66666666666666 168 150.33333333333334 161.66666666666666 154.66666666666666 155.33333333333334C159 149 156.66666666666666 151.33333333333334 163.66666666666666 149C170.66666666666666 146.66666666666666 172.66666666666666 150.66666666666666 171 156.33333333333334Z" nodetypes="zzzzz" label="glint_sm" style="display:inline;fill:#ffffff;fill-opacity:1;stroke-width:0.849148"/>
    <path id="glint_lg_11_0_02" d="M206.66666666666666 138C204 144 196.33333333333334 147.66666666666666 191.66666666666666 147.66666666666666C183 149 181.33333333333334 138 183.33333333333334 133C186.66666666666666 127.33333333333333 195.33333333333334 124.33333333333333 200.66666666666666 126.33333333333333C208.66666666666666 129 208 132.33333333333334 206.66666666666666 138Z" style="display:inline;fill:#ffffff;fill-opacity:1;stroke-width:0.892652" nodetypes="sssas" label="glint_lg"/>
</g>

<g id="g_inner_eye_11_0_to_10" inkscape:groupmode="layer" inkscape:label="g_inner_eye_11_0_to_10" style="display:none">
    <path id="iris_11_0_10" d="M198.25 158.66666666666666C197.25 197.66666666666666 171.58333333333334 224.33333333333334 138.58333333333334 224.33333333333334C105.58333333333334 224.33333333333334 80.58333333333333 194.66666666666666 78.91666666666667 158.66666666666666C77.25 123.33333333333333 105.58333333333334 93 138.58333333333334 93C171.58333333333334 93 199.25 122.66666666666667 198.25 158.66666666666666Z" label="iris" style="display:inline;fill:#2affd5;fill-opacity:1;stroke:#1d1d1d;stroke-width:4;stroke-dasharray:none;stroke-opacity:1" nodetypes="sssss"/>
    <path id="iris_shadow_top_11_0_10" d="M78.58333333333333 161.33333333333334C78.58333333333333 161.33333333333334 101.25 143 113.91666666666667 140C131.58333333333334 135.66666666666666 150.58333333333334 136.33333333333334 167.58333333333334 142C179.25 145.66666666666666 198.91666666666666 165 198.91666666666666 165C199.91666666666666 144 191.91666666666666 90.66666666666667 138.58333333333334 92.66666666666667C82.58333333333333 94.33333333333333 77.58333333333333 151.33333333333334 77.91666666666667 161.33333333333334Z" label="iris_shadow_top" style="display:inline;fill:#2f4f4f;fill-opacity:1;stroke:none;stroke-opacity:0.899705" nodetypes="caacsc"/>
    <path id="pupil_11_0_10" d="M137.58333333333334 187C124.25 187 112.58333333333334 172.66666666666666 112.58333333333334 157.33333333333334C112.58333333333334 143 124.25 131.66666666666666 138.58333333333334 131.66666666666666C151.91666666666666 131.66666666666666 162.58333333333334 145 162.58333333333334 157.33333333333334C162.58333333333334 170.66666666666666 150.91666666666666 187 137.58333333333334 187Z" label="pupil" style="display:inline;fill:#0a0a0a;stroke-width:1.15464" nodetypes="sssas"/>
    <path id="glint_sm_11_0_10" d="M128.91666666666666 173C127.25 178.66666666666666 125.25 181.66666666666666 119.25 183.33333333333334C112.91666666666667 185.33333333333334 109.58333333333334 178.66666666666666 112.91666666666667 172C116.58333333333334 165.33333333333334 115.25 167.33333333333334 121.91666666666667 165.33333333333334C128.58333333333334 163.33333333333334 130.91666666666666 167.33333333333334 128.91666666666666 173Z" nodetypes="zzzzz" label="glint_sm" style="display:inline;fill:#ffffff;fill-opacity:1;stroke-width:0.849148"/>
    <path id="glint_lg_11_0_10" d="M170.91666666666666 146C169.25 153.33333333333334 161.25 162.33333333333334 154.91666666666666 164C143.25 167.66666666666666 137.91666666666666 153.66666666666666 138.91666666666666 146C140.58333333333334 137.33333333333334 152.25 133 159.58333333333334 133.66666666666666C170.91666666666666 135 172.25 138 170.91666666666666 146Z" style="display:inline;fill:#ffffff;fill-opacity:1;stroke-width:0.892652" nodetypes="sssas" label="glint_lg"/>
</g>

<g id="g_inner_eye_11_0_to_12" inkscape:groupmode="layer" inkscape:label="g_inner_eye_11_0_to_12" style="display:none">
    <path id="iris_11_0_12" d="M241.33333333333334 157.66666666666666C240.33333333333334 196.66666666666666 214.66666666666666 223.33333333333334 181.66666666666666 223.33333333333334C148.66666666666666 223.33333333333334 123.66666666666666 193.66666666666666 122 157.66666666666666C120.33333333333333 122.33333333333333 148.66666666666666 92 181.66666666666666 92C214.66666666666666 92 242.33333333333334 121.66666666666667 241.33333333333334 157.66666666666666Z" label="iris" style="display:inline;fill:#2affd5;fill-opacity:1;stroke:#1d1d1d;stroke-width:4;stroke-dasharray:none;stroke-opacity:1" nodetypes="sssss"/>
    <path id="iris_shadow_top_11_0_12" d="M121.66666666666666 160.33333333333334C121.66666666666666 160.33333333333334 144.33333333333334 142 157 139C174.66666666666666 134.66666666666666 193.66666666666666 135.33333333333334 210.66666666666666 141C222.33333333333334 144.66666666666666 242 164 242 164C243 143 235 90 181.66666666666666 91.66666666666667C124.33333333333333 93.33333333333333 120.66666666666666 150.33333333333334 121 160.33333333333334Z" label="iris_shadow_top" style="display:inline;fill:#2f4f4f;fill-opacity:1;stroke:none;stroke-opacity:0.899705" nodetypes="caacsc"/>
    <path id="pupil_11_0_12" d="M184.66666666666666 186C171.33333333333334 186 159.66666666666666 171.66666666666666 159.66666666666666 156.33333333333334C159.66666666666666 142 171.33333333333334 130.66666666666666 185.66666666666666 130.66666666666666C199 130.66666666666666 209.66666666666666 144 209.66666666666666 156.33333333333334C209.66666666666666 169.66666666666666 198 186 184.66666666666666 186Z" label="pupil" style="display:inline;fill:#0a0a0a;stroke-width:1.15464" nodetypes="sssas"/>
    <path id="glint_sm_11_0_12" d="M176 172C174.33333333333334 177.66666666666666 172.33333333333334 180.66666666666666 166.33333333333334 182.33333333333334C160 184.33333333333334 156.66666666666666 177.66666666666666 160 171C163.66666666666666 164.33333333333334 162.33333333333334 166.33333333333334 169 164.33333333333334C175.66666666666666 162.33333333333334 178 166.33333333333334 176 172Z" nodetypes="zzzzz" label="glint_sm" style="display:inline;fill:#ffffff;fill-opacity:1;stroke-width:0.849148"/>
    <path id="glint_lg_11_0_12" d="M218 145C216.33333333333334 152.33333333333334 208.33333333333334 161.33333333333334 202 163C190.33333333333334 166.66666666666666 185 152.66666666666666 186 145C187.66666666666666 136.33333333333334 199.33333333333334 132 206.66666666666666 132.66666666666666C218 134 219.33333333333334 137 218 145Z" style="display:inline;fill:#ffffff;fill-opacity:1;stroke-width:0.892652" nodetypes="sssas" label="glint_lg"/>
</g>

<g id="g_inner_eye_11_0_to_20" inkscape:groupmode="layer" inkscape:label="g_inner_eye_11_0_to_20" style="display:none">
    <path id="iris_11_0_20" d="M194.27147666666667 157.25773C201.93814333333333 192.92439666666667 184.27147666666667 221.25773 154.60481 226.25773C124.93814333333333 231.25773 96.27147666666666 207.92439666666667 86.93814433333333 175.25773C77.93814433333333 143.25773 96.93814433333333 111.25773 126.604811 106.25773C156.27147766666667 101.25773 187.60481 123.92439666666667 194.27147666666667 157.25773Z" label="iris" style="display:inline;fill:#2affd5;fill-opacity:1;stroke:#1d1d1d;stroke-width:4;stroke-dasharray:none;stroke-opacity:1" nodetypes="sssss"/>
    <path id="iris_shadow_top_11_0_20" d="M79.93814433333333 163.25773C79.93814433333333 163.25773 100.60481100000001 147.59106333333332 111.93814433333334 144.59106333333332C128.604811 140.59106333333332 146.604811 140.59106333333332 162.93814333333333 144.92439666666667C175.27147666666667 147.92439666666667 197.27147666666667 163.92439666666667 197.27147666666667 163.92439666666667C194.27147666666667 144.59106333333332 181.60481000000001 100.92439666666667 135.27147766666667 102.92439666666667C73.604811 104.92439666666667 79.27147766666667 163.25773 79.27147766666667 163.25773Z" label="iris_shadow_top" style="display:inline;fill:#2f4f4f;fill-opacity:1;stroke:none;stroke-opacity:0.899705" nodetypes="caacsc"/>
    <path id="pupil_11_0_20" d="M145.93814333333333 193.92439666666667C133.93814333333333 195.92439666666667 120.27147766666667 184.59106333333332 117.27147766666667 170.59106333333332C114.27147766666667 157.59106333333332 122.27147766666667 145.25773 134.93814433333333 143.25773C146.93814433333333 141.25773 159.60481000000001 151.92439666666667 161.93814333333333 163.25773C164.93814333333333 175.59106333333332 157.93814333333333 191.92439666666667 145.93814333333333 193.92439666666667Z" label="pupil" style="display:inline;fill:#0a0a0a;stroke-width:1.15464" nodetypes="sssas"/>
    <path id="glint_sm_11_0_20" d="M128.60481099999998 181.59106333333332C125.93814433333333 185.92439666666667 123.604811 186.59106333333332 119.93814433333333 186.59106333333332C115.93814433333333 186.59106333333332 112.93814433333333 182.25773 117.27147766666667 177.25773C121.604811 172.25773 120.604811 174.25773 125.604811 174.09106333333332C130.60481099999998 173.92439666666667 131.60481099999998 176.92439666666667 128.60481099999998 181.59106333333332Z" nodetypes="zzzzz" label="glint_sm" style="display:inline;fill:#ffffff;fill-opacity:1;stroke-width:0.849148"/>
    <path id="glint_lg_11_0_20" d="M170.93814333333333 157.25773C169.93814333333333 164.25773 161.27147666666667 171.92439666666667 155.27147666666667 173.59106333333332C143.93814333333333 176.92439666666667 138.93814433333333 163.92439666666667 139.604811 157.25773C141.27147766666667 149.59106333333332 152.60481000000001 145.25773 159.60481000000001 145.92439666666667C169.93814333333333 147.59106333333332 170.93814333333333 150.25773 170.93814333333333 157.25773Z" style="display:inline;fill:#ffffff;fill-opacity:1;stroke-width:0.892652" nodetypes="sssas" label="glint_lg"/>
</g>

<g id="g_inner_eye_11_0_to_21" inkscape:groupmode="layer" inkscape:label="g_inner_eye_11_0_to_21" style="display:none">
    <path id="iris_11_0_21" d="M226 168.33333333333334C225 205.33333333333334 196 230.66666666666666 159 230.66666666666666C122 230.66666666666666 94 202.66666666666666 92 168.33333333333334C90 135 122 106 159 106C196 106 227 134 226 168.33333333333334Z" label="iris" style="display:inline;fill:#2affd5;fill-opacity:1;stroke:#1d1d1d;stroke-width:4;stroke-dasharray:none;stroke-opacity:1" nodetypes="sssss"/>
    <path id="iris_shadow_top_11_0_21" d="M91.66666666666667 170.66666666666666C91.66666666666667 170.66666666666666 117 153.66666666666666 131.33333333333334 150.66666666666666C151 146.66666666666666 172.33333333333334 147 191.33333333333334 152.33333333333334C204.33333333333334 156 226.33333333333334 174.33333333333334 226.33333333333334 174.33333333333334C227.33333333333334 154.33333333333334 221.33333333333334 102.33333333333333 157.66666666666666 105C88 107.66666666666667 90.66666666666667 170.33333333333334 90.66666666666667 170.33333333333334Z" label="iris_shadow_top" style="display:inline;fill:#2f4f4f;fill-opacity:1;stroke:none;stroke-opacity:0.899705" nodetypes="caacsc"/>
    <path id="pupil_11_0_21" d="M159.66666666666666 197.66666666666666C144.66666666666666 197.66666666666666 131.66666666666666 184 131.66666666666666 169.33333333333334C131.66666666666666 155.66666666666666 144.66666666666666 144.66666666666666 160.66666666666666 144.66666666666666C175.66666666666666 144.66666666666666 187.66666666666666 157.33333333333334 187.66666666666666 169.33333333333334C187.66666666666666 182 174.66666666666666 197.66666666666666 159.66666666666666 197.66666666666666Z" label="pupil" style="display:inline;fill:#0a0a0a;stroke-width:1.15464" nodetypes="sssas"/>
    <path id="glint_sm_11_0_21" d="M149.66666666666666 183C147.66666666666666 188.33333333333334 145.66666666666666 191 138.66666666666666 193C131.66666666666666 194.66666666666666 127.66666666666667 188.33333333333334 131.66666666666666 182C135.66666666666666 175.66666666666666 133.66666666666666 177.33333333333334 141.66666666666666 175.66666666666666C149.66666666666666 174 151.66666666666666 177.33333333333334 149.66666666666666 183Z" nodetypes="zzzzz" label="glint_sm" style="display:inline;fill:#ffffff;fill-opacity:1;stroke-width:0.849148"/>
    <path id="glint_lg_11_0_21" d="M195.66666666666666 160.33333333333334C194.66666666666666 167.66666666666666 184.66666666666666 175.66666666666666 177.66666666666666 177.66666666666666C164.66666666666666 181.33333333333334 158.66666666666666 167.66666666666666 159.66666666666666 160.33333333333334C161.66666666666666 152.33333333333334 174.66666666666666 147.66666666666666 182.66666666666666 148.66666666666666C194.66666666666666 150.33333333333334 195.66666666666666 153.33333333333334 195.66666666666666 160.33333333333334Z" style="display:inline;fill:#ffffff;fill-opacity:1;stroke-width:0.892652" nodetypes="sssas" label="glint_lg"/>
</g>

<g id="g_inner_eye_11_0_to_22" inkscape:groupmode="layer" inkscape:label="g_inner_eye_11_0_to_22" style="display:none">
    <path id="iris_11_0_22" d="M233.5 175.08333333333334C224.5 210.75 195.5 231.08333333333334 165.83333333333334 226.08333333333334C136.16666666666666 221.08333333333334 120.16666666666666 190.41666666666666 126.16666666666666 157.08333333333334C132.16666666666666 124.75 164.16666666666666 101.08333333333333 193.83333333333331 106.08333333333333C223.5 111.08333333333333 242.16666666666666 142.41666666666666 233.5 175.08333333333334Z" label="iris" style="display:inline;fill:#2affd5;fill-opacity:1;stroke:#1d1d1d;stroke-width:4;stroke-dasharray:none;stroke-opacity:1" nodetypes="sssss"/>
    <path id="iris_shadow_top_11_0_22" d="M126.5 157.41666666666666C126.5 157.41666666666666 150.5 143.41666666666666 163.5 141.41666666666666C180.16666666666666 138.75 197.5 139.41666666666666 213.16666666666666 145.08333333333334C223.83333333333334 148.75 241.83333333333334 165.75 241.83333333333334 165.75C243.83333333333334 143.75 236.5 104.08333333333333 190.83333333333334 103.41666666666667C136.5 101.08333333333333 125.83333333333333 157.75 125.83333333333333 157.75Z" label="iris_shadow_top" style="display:inline;fill:#2f4f4f;fill-opacity:1;stroke:none;stroke-opacity:0.899705" nodetypes="caacsc"/>
    <path id="pupil_11_0_22" d="M176.83333333333334 192.75C164.83333333333334 190.75 157.5 175.75 160.83333333333334 162.08333333333334C163.83333333333334 149.08333333333334 176.83333333333334 140.41666666666666 189.5 142.41666666666666C201.5 144.41666666666666 208.16666666666666 158.41666666666666 205.5 169.41666666666666C202.5 181.75 188.83333333333334 194.75 176.83333333333334 192.75Z" label="pupil" style="display:inline;fill:#0a0a0a;stroke-width:1.15464" nodetypes="sssas"/>
    <path id="glint_sm_11_0_22" d="M171.83333333333334 181.08333333333334C170.16666666666666 186.41666666666666 168.5 188.75 162.16666666666666 190.75C156.16666666666666 192.41666666666666 152.5 186.41666666666666 156.16666666666666 180.41666666666666C159.5 174.41666666666666 157.83333333333334 176.08333333333334 164.83333333333334 174.41666666666666C171.83333333333334 172.75 173.5 176.08333333333334 171.83333333333334 181.41666666666666Z" nodetypes="zzzzz" label="glint_sm" style="display:inline;fill:#ffffff;fill-opacity:1;stroke-width:0.849148"/>
    <path id="glint_lg_11_0_22" d="M216.83333333333334 153.75C215.83333333333334 160.75 207.16666666666666 168.41666666666666 201.16666666666666 170.08333333333334C189.83333333333334 173.41666666666666 184.83333333333334 160.41666666666666 185.5 153.75C187.16666666666666 146.08333333333334 198.5 141.75 205.5 142.41666666666666C215.83333333333334 144.08333333333334 216.83333333333334 146.75 216.83333333333334 153.75Z" style="display:inline;fill:#ffffff;fill-opacity:1;stroke-width:0.892652" nodetypes="sssas" label="glint_lg"/>
</g>

<g id="g_inner_eye_11_1_to_00" inkscape:groupmode="layer" inkscape:label="g_inner_eye_11_1_to_00" style="display:none">
    <path id="iris_11_1_00" d="M168.66666666666669 153C151.66666666666669 183.33333333333334 122.66666666666667 196 100.33333333333334 186C78 176 74 145.66666666666669 88 117C102 89.33333333333334 134 74 156.33333333333334 84C178.66666666666666 94 185 125.66666666666667 168.66666666666669 153Z" label="iris" style="display:inline;fill:#2affd5;fill-opacity:1;stroke:#1d1d1d;stroke-width:4;stroke-dasharray:none;stroke-opacity:1" nodetypes="sssss"/>
    <path id="iris_shadow_top_11_1_00" d="M86.66666666666667 118.66666666666667C86.66666666666667 118.66666666666667 106.66666666666667 106.66666666666667 117.33333333333333 105C130.66666666666666 103 144.33333333333334 103.66666666666667 156.66666666666669 107.66666666666667C167 111 185 125 185 125C184 102.33333333333334 175 78 142.33333333333334 77.66666666666667C103.33333333333333 78 86.33333333333333 118.66666666666667 86.33333333333333 118.66666666666667Z" label="iris_shadow_top" style="display:inline;fill:#2f4f4f;fill-opacity:1;stroke:none;stroke-opacity:0.899705" nodetypes="caacsc"/>
    <path id="pupil_11_1_00" d="M112.66666666666667 150.33333333333334C103.66666666666667 146.33333333333334 102 131.33333333333334 108.66666666666667 120C114.66666666666667 109 127.66666666666667 103.66666666666667 137 107.66666666666667C146 111.66666666666667 147.33333333333334 125.66666666666667 142 134.66666666666666C136 145.33333333333334 121.66666666666667 154.33333333333334 112.66666666666667 150.33333333333334Z" label="pupil" style="display:inline;fill:#0a0a0a;stroke-width:1.15464" nodetypes="sssas"/>
    <path id="glint_sm_11_1_00" d="M106.66666666666667 149C103.33333333333334 151.66666666666666 101.33333333333334 149.33333333333334 100.33333333333334 148C99.33333333333334 146.66666666666669 98.66666666666667 143.66666666666669 102 140C105.33333333333334 136.33333333333334 108 139 109.33333333333334 141.66666666666666C110 143.66666666666666 110 146.33333333333334 106.66666666666667 149Z" nodetypes="zzzzz" label="glint_sm" style="display:inline;fill:#ffffff;fill-opacity:1;stroke-width:0.849148"/>
    <path id="glint_lg_11_1_00" d="M154 113.33333333333334C153 118 147 123 142.66666666666669 123.66666666666667C135 125 131.66666666666666 117.33333333333334 132.66666666666666 112.66666666666667C134.66666666666666 108.33333333333334 141.66666666666669 104 146.33333333333334 105C152.33333333333334 105.66666666666667 154 108 154 113.33333333333334Z" style="display:inline;fill:#ffffff;fill-opacity:1;stroke-width:0.892652" nodetypes="sssas" label="glint_lg"/>
</g>

<g id="g_inner_eye_11_1_to_01" inkscape:groupmode="layer" inkscape:label="g_inner_eye_11_1_to_01" style="display:none">
    <path id="iris_11_1_01" d="M226 144.33333333333334C225 182 196 207.33333333333334 159 207.33333333333334C122 207.33333333333334 94 179 92 144.33333333333334C90 110.66666666666667 122 81.33333333333333 159 81.33333333333333C196 81.33333333333333 227 109.66666666666667 226 144.33333333333334Z" label="iris" style="display:inline;fill:#2affd5;fill-opacity:1;stroke:#1d1d1d;stroke-width:4;stroke-dasharray:none;stroke-opacity:1" nodetypes="sssss"/>
    <path id="iris_shadow_top_11_1_01" d="M92.66666666666667 152.66666666666666C92.66666666666667 152.66666666666666 117.33333333333333 130.66666666666666 132.66666666666666 126.33333333333333C152 121 173.66666666666666 121.66666666666667 192 128.33333333333334C205.66666666666666 133 226.33333333333334 155 226.33333333333334 155C227.33333333333334 133 222.33333333333334 79.33333333333333 157 79.66666666666667C84 80 91.66666666666667 152.66666666666666 91.66666666666667 152.66666666666666Z" label="iris_shadow_top" style="display:inline;fill:#2f4f4f;fill-opacity:1;stroke:none;stroke-opacity:0.899705" nodetypes="caacsc"/>
    <path id="pupil_11_1_01" d="M159.33333333333334 157.66666666666666C144.33333333333334 157.66666666666666 131.33333333333334 144.66666666666666 131.33333333333334 131.33333333333334C131.33333333333334 118.33333333333334 144.33333333333334 108.33333333333334 160.33333333333334 108.33333333333334C175.33333333333334 108.33333333333334 187.33333333333334 120.33333333333334 187.33333333333334 131.33333333333334C187.33333333333334 143.33333333333334 174.33333333333334 157.66666666666666 159.33333333333334 157.66666666666666Z" label="pupil" style="display:inline;fill:#0a0a0a;stroke-width:1.15464" nodetypes="sssas"/>
    <path id="glint_sm_11_1_01" d="M146 147.66666666666666C144 153.66666666666666 142 156.66666666666666 135 158.66666666666666C128 160.66666666666666 125.33333333333333 155.66666666666666 129.33333333333334 148.66666666666666C133.33333333333334 141.66666666666666 130 143 138 141C146 139 148 141.66666666666666 146 147.66666666666666Z" nodetypes="zzzzz" label="glint_sm" style="display:inline;fill:#ffffff;fill-opacity:1;stroke-width:0.849148"/>
    <path id="glint_lg_11_1_01" d="M192 116C191 122.66666666666667 185.66666666666666 126.33333333333334 180.66666666666666 127.66666666666667C171 131 165 121.33333333333334 167.33333333333334 115.33333333333334C170.66666666666666 108.33333333333334 176.33333333333334 106 181.66666666666666 106.33333333333334C188.33333333333334 107 192 109.33333333333334 192 115.33333333333334Z" style="display:inline;fill:#ffffff;fill-opacity:1;stroke-width:0.892652" nodetypes="sssas" label="glint_lg"/>
</g>

<g id="g_inner_eye_11_1_to_02" inkscape:groupmode="layer" inkscape:label="g_inner_eye_11_1_to_02" style="display:none">
    <path id="iris_11_1_02" d="M235.33333333333334 117.66666666666667C251 148 244.66666666666666 176.66666666666669 221.66666666666666 187.33333333333334C198.66666666666666 198 169.33333333333331 183 152.66666666666666 155.66666666666666C136.66666666666666 129.33333333333334 143.33333333333334 96.66666666666667 166.33333333333334 86C189.33333333333334 75.33333333333333 220.33333333333334 89.66666666666667 235.33333333333334 117.66666666666667Z" label="iris" style="display:inline;fill:#2affd5;fill-opacity:1;stroke:#1d1d1d;stroke-width:4;stroke-dasharray:none;stroke-opacity:1" nodetypes="sssss"/>
    <path id="iris_shadow_top_11_1_02" d="M138.66666666666666 126.66666666666667C138.66666666666666 126.66666666666667 158.66666666666666 113.33333333333334 170 110.33333333333334C182.66666666666666 107 196.33333333333334 107 209.33333333333334 110.33333333333334C220.33333333333334 112.33333333333334 240.33333333333334 125 240.33333333333334 125C232 108.33333333333334 218.33333333333334 78 181 80.33333333333333C134 82 138.33333333333331 126.66666666666667 138.33333333333331 126.66666666666667Z" label="iris_shadow_top" style="display:inline;fill:#2f4f4f;fill-opacity:1;stroke:none;stroke-opacity:0.899705" nodetypes="caacsc"/>
    <path id="pupil_11_1_02" d="M210.66666666666666 154.33333333333334C201.66666666666666 158.33333333333334 187.33333333333331 151.33333333333334 180.66666666666666 139.33333333333334C174.66666666666666 128.33333333333334 177.66666666666666 115.66666666666667 187.66666666666666 111C196.66666666666666 107 210 113.66666666666667 215.33333333333334 123.33333333333334C220.66666666666666 133.33333333333334 219.66666666666666 149.66666666666669 210.66666666666666 154.33333333333334Z" label="pupil" style="display:inline;fill:#0a0a0a;stroke-width:1.15464" nodetypes="sssas"/>
    <path id="glint_sm_11_1_02" d="M192 139.66666666666669C190.66666666666666 144.33333333333334 188.66666666666666 146.66666666666669 183 148.66666666666669C177.33333333333331 150 172.66666666666666 144.33333333333334 177.33333333333331 138.66666666666669C182 133 179.33333333333331 135.66666666666666 185.33333333333331 133C191.33333333333331 130.33333333333334 193.33333333333331 134.33333333333334 192 139.66666666666669Z" nodetypes="zzzzz" label="glint_sm" style="display:inline;fill:#ffffff;fill-opacity:1;stroke-width:0.849148"/>
    <path id="glint_lg_11_1_02" d="M217.33333333333334 128C213 132 207.66666666666666 130.33333333333334 205.33333333333334 128.33333333333334C201 127 203.66666666666666 120 206.66666666666666 118C211.33333333333331 115.66666666666667 215.66666666666666 114.66666666666667 218.33333333333331 117.66666666666667C222.33333333333334 121 220 124.66666666666667 217.33333333333334 128Z" style="display:inline;fill:#ffffff;fill-opacity:1;stroke-width:0.892652" nodetypes="sssas" label="glint_lg"/>
</g>

<g id="g_inner_eye_11_1_to_10" inkscape:groupmode="layer" inkscape:label="g_inner_eye_11_1_to_10" style="display:none">
    <path id="iris_11_1_10" d="M170.5 158.33333333333334C169.5 195.33333333333334 147.16666666666669 220.66666666666666 118.16666666666667 220.66666666666666C89.16666666666667 220.66666666666666 67.16666666666667 192.33333333333334 65.83333333333334 158.33333333333334C64.5 124.66666666666667 89.16666666666667 96 118.16666666666667 96C147.16666666666669 96 171.5 124.33333333333333 170.5 158.33333333333334Z" label="iris" style="display:inline;fill:#2affd5;fill-opacity:1;stroke:#1d1d1d;stroke-width:4;stroke-dasharray:none;stroke-opacity:1" nodetypes="sssss"/>
    <path id="iris_shadow_top_11_1_10" d="M65.16666666666667 162.66666666666666C65.16666666666667 162.66666666666666 84.5 144 95.83333333333334 141C111.16666666666667 136.33333333333334 128.16666666666669 137.66666666666666 143.16666666666669 143C153.5 146.33333333333334 170.83333333333334 165 170.83333333333334 165C171.83333333333334 145 162.83333333333334 95.33333333333333 118.16666666666667 96.33333333333333C77.16666666666667 96.66666666666667 64.16666666666667 142.66666666666666 64.83333333333334 162.66666666666666Z" label="iris_shadow_top" style="display:inline;fill:#2f4f4f;fill-opacity:1;stroke:none;stroke-opacity:0.899705" nodetypes="caacsc"/>
    <path id="pupil_11_1_10" d="M115.16666666666667 185C103.5 185 93.16666666666667 171.33333333333334 93.16666666666667 156.66666666666666C93.16666666666667 143 103.5 132.33333333333334 116.16666666666667 132.33333333333334C127.83333333333334 132.33333333333334 137.16666666666669 145 137.16666666666669 156.66666666666666C137.16666666666669 169.33333333333334 126.83333333333334 185 115.16666666666667 185Z" label="pupil" style="display:inline;fill:#0a0a0a;stroke-width:1.15464" nodetypes="sssas"/>
    <path id="glint_sm_11_1_10" d="M107.83333333333334 173C106.5 178.33333333333334 104.5 181.33333333333334 99.5 182.66666666666666C93.83333333333334 184.66666666666666 91.16666666666667 178.33333333333334 93.83333333333334 172C97.16666666666667 165.66666666666666 96.5 167.66666666666666 101.83333333333334 165.66666666666666C107.16666666666667 163.66666666666666 109.83333333333334 167.66666666666666 107.83333333333334 173Z" nodetypes="zzzzz" label="glint_sm" style="display:inline;fill:#ffffff;fill-opacity:1;stroke-width:0.849148"/>
    <path id="glint_lg_11_1_10" d="M145.83333333333334 144C143.5 150.66666666666666 137.5 159.66666666666666 131.83333333333334 161C121.5 164.33333333333334 116.83333333333334 151.33333333333334 117.83333333333334 144C119.16666666666667 135.66666666666666 129.5 132 136.16666666666669 132.33333333333334C146.83333333333334 133 148.5 136 145.83333333333334 144Z" style="display:inline;fill:#ffffff;fill-opacity:1;stroke-width:0.892652" nodetypes="sssas" label="glint_lg"/>
</g>

<g id="g_inner_eye_11_1_to_12" inkscape:groupmode="layer" inkscape:label="g_inner_eye_11_1_to_12" style="display:none">
    <path id="iris_11_1_12" d="M256.6666666666667 156.33333333333334C255.66666666666666 193.33333333333334 233.33333333333331 218.66666666666666 204.33333333333331 218.66666666666666C175.33333333333331 218.66666666666666 153.33333333333331 190.33333333333334 152 156.33333333333334C150.66666666666666 122.66666666666667 175.33333333333331 94 204.33333333333331 94C233.33333333333331 94 257.6666666666667 122.33333333333333 256.6666666666667 156.33333333333334Z" label="iris" style="display:inline;fill:#2affd5;fill-opacity:1;stroke:#1d1d1d;stroke-width:4;stroke-dasharray:none;stroke-opacity:1" nodetypes="sssss"/>
    <path id="iris_shadow_top_11_1_12" d="M151.33333333333331 160.66666666666666C151.33333333333331 160.66666666666666 170.66666666666666 142 182 139C197.33333333333331 134.33333333333334 214.33333333333331 135.66666666666666 229.33333333333331 141C239.66666666666666 144.33333333333334 257 163 257 163C258 143 249 94 204.33333333333331 94.33333333333333C160.66666666666666 94.66666666666667 150.33333333333331 140.66666666666666 151 160.66666666666666Z" label="iris_shadow_top" style="display:inline;fill:#2f4f4f;fill-opacity:1;stroke:none;stroke-opacity:0.899705" nodetypes="caacsc"/>
    <path id="pupil_11_1_12" d="M209.33333333333331 183C197.66666666666666 183 187.33333333333331 169.33333333333334 187.33333333333331 154.66666666666666C187.33333333333331 141 197.66666666666666 130.33333333333334 210.33333333333331 130.33333333333334C222 130.33333333333334 231.33333333333331 143 231.33333333333331 154.66666666666666C231.33333333333331 167.33333333333334 221 183 209.33333333333331 183Z" label="pupil" style="display:inline;fill:#0a0a0a;stroke-width:1.15464" nodetypes="sssas"/>
    <path id="glint_sm_11_1_12" d="M202 171C200.66666666666666 176.33333333333334 198.66666666666666 179.33333333333334 193.66666666666666 180.66666666666666C188 182.66666666666666 185.33333333333331 176.33333333333334 188 170C191.33333333333331 163.66666666666666 190.66666666666666 165.66666666666666 196 163.66666666666666C201.33333333333331 161.66666666666666 204 165.66666666666666 202 171Z" nodetypes="zzzzz" label="glint_sm" style="display:inline;fill:#ffffff;fill-opacity:1;stroke-width:0.849148"/>
    <path id="glint_lg_11_1_12" d="M240 142C237.66666666666666 148.66666666666666 231.66666666666666 157.66666666666666 226 159C215.66666666666666 162.33333333333334 211 149.33333333333334 212 142C213.33333333333331 133.66666666666666 223.66666666666666 130 230.33333333333331 130.33333333333334C241 131 242.66666666666666 134 240 142Z" style="display:inline;fill:#ffffff;fill-opacity:1;stroke-width:0.892652" nodetypes="sssas" label="glint_lg"/>
</g>

<g id="g_inner_eye_11_1_to_20" inkscape:groupmode="layer" inkscape:label="g_inner_eye_11_1_to_20" style="display:none">
    <path id="iris_11_1_20" d="M162.54295333333334 155.51546C178.87628666666666 185.84879333333333 172.54295333333332 214.51546 150.20962 224.51546C127.87628666666666 234.51546 98.54295333333333 218.84879333333333 81.87628866666667 191.51546C65.87628866666667 164.51546 71.87628866666667 132.51546 94.209622 122.51545999999999C116.54295533333334 112.51545999999999 148.20962 126.84879333333333 162.54295333333334 155.51546Z" label="iris" style="display:inline;fill:#2affd5;fill-opacity:1;stroke:#1d1d1d;stroke-width:4;stroke-dasharray:none;stroke-opacity:1" nodetypes="sssss"/>
    <path id="iris_shadow_top_11_1_20" d="M67.87628866666667 166.51546C67.87628866666667 166.51546 83.20962200000001 153.18212666666668 91.87628866666668 150.18212666666668C105.20962200000001 146.18212666666668 120.20962200000001 146.18212666666668 133.8762866666667 148.84879333333333C145.54295333333334 150.84879333333333 167.54295333333334 162.84879333333333 167.54295333333334 162.84879333333333C160.54295333333334 146.18212666666668 142.20962000000003 115.84879333333333 111.54295533333334 116.84879333333333C59.20962200000001 117.84879333333333 67.54295533333334 166.51546 67.54295533333334 166.51546Z" label="iris_shadow_top" style="display:inline;fill:#2f4f4f;fill-opacity:1;stroke:none;stroke-opacity:0.899705" nodetypes="caacsc"/>
    <path id="pupil_11_1_20" d="M131.87628666666666 198.84879333333333C122.87628666666667 202.84879333333333 108.54295533333334 195.18212666666668 102.54295533333334 183.18212666666668C96.54295533333334 172.18212666666668 99.54295533333334 159.51546 108.87628866666668 155.51546C117.87628866666668 151.51546 131.20962000000003 158.84879333333333 135.8762866666667 168.51546C141.8762866666667 179.18212666666668 140.8762866666667 194.84879333333333 131.8762866666667 198.84879333333333Z" label="pupil" style="display:inline;fill:#0a0a0a;stroke-width:1.15464" nodetypes="sssas"/>
    <path id="glint_sm_11_1_20" d="M107.209622 190.18212666666668C103.87628866666667 192.84879333333333 101.209622 191.18212666666668 100.87628866666667 189.18212666666668C99.87628866666667 187.18212666666668 97.87628866666667 185.51546 102.54295533333334 182.51546C107.209622 179.51546 107.209622 181.51546 109.209622 183.18212666666668C111.209622 184.84879333333333 111.209622 186.84879333333333 107.209622 190.18212666666668Z" nodetypes="zzzzz" label="glint_sm" style="display:inline;fill:#ffffff;fill-opacity:1;stroke-width:0.849148"/>
    <path id="glint_lg_11_1_20" d="M145.87628666666666 166.51546C144.87628666666666 172.51546 137.54295333333334 178.84879333333333 132.54295333333334 180.18212666666668C122.87628666666667 182.84879333333333 118.87628866666668 171.84879333333333 119.20962200000001 166.51546C120.54295533333334 160.18212666666668 130.20962000000003 156.51546 136.20962000000003 156.84879333333333C144.8762866666667 158.18212666666668 145.8762866666667 160.51546 145.8762866666667 166.51546Z" style="display:inline;fill:#ffffff;fill-opacity:1;stroke-width:0.892652" nodetypes="sssas" label="glint_lg"/>
</g>

<g id="g_inner_eye_11_1_to_21" inkscape:groupmode="layer" inkscape:label="g_inner_eye_11_1_to_21" style="display:none">
    <path id="iris_11_1_21" d="M226 177.66666666666666C225 210.66666666666666 196 233.33333333333334 159 233.33333333333334C122 233.33333333333334 94 208.33333333333334 92 177.66666666666666C90 148 122 122 159 122C196 122 227 147 226 177.66666666666666Z" label="iris" style="display:inline;fill:#2affd5;fill-opacity:1;stroke:#1d1d1d;stroke-width:4;stroke-dasharray:none;stroke-opacity:1" nodetypes="sssss"/>
    <path id="iris_shadow_top_11_1_21" d="M91.33333333333333 181.33333333333334C91.33333333333333 181.33333333333334 116 165.33333333333334 130.66666666666666 162.33333333333334C150 158.33333333333334 171.66666666666666 159 190.66666666666666 163.66666666666666C203.66666666666666 167 225.66666666666666 183.66666666666666 225.66666666666666 183.66666666666666C226.66666666666666 165.66666666666666 221.66666666666666 118.66666666666666 156.33333333333334 121C88 123.33333333333333 90.33333333333333 180.66666666666666 90.33333333333333 180.66666666666666Z" label="iris_shadow_top" style="display:inline;fill:#2f4f4f;fill-opacity:1;stroke:none;stroke-opacity:0.899705" nodetypes="caacsc"/>
    <path id="pupil_11_1_21" d="M159.33333333333334 206.33333333333334C144.33333333333334 206.33333333333334 131.33333333333334 194 131.33333333333334 180.66666666666666C131.33333333333334 168.33333333333334 144.33333333333334 158.33333333333334 160.33333333333334 158.33333333333334C175.33333333333334 158.33333333333334 187.33333333333334 169.66666666666666 187.33333333333334 180.66666666666666C187.33333333333334 192 174.33333333333334 206.33333333333334 159.33333333333334 206.33333333333334Z" label="pupil" style="display:inline;fill:#0a0a0a;stroke-width:1.15464" nodetypes="sssas"/>
    <path id="glint_sm_11_1_21" d="M149.33333333333334 193C147.33333333333334 197.66666666666666 145.33333333333334 200 138.33333333333334 202C131.33333333333334 203.33333333333334 127.33333333333333 197.66666666666666 131.33333333333334 192C135.33333333333334 186.33333333333334 133.33333333333334 187.66666666666666 141.33333333333334 186.33333333333334C149.33333333333334 185 151.33333333333334 187.66666666666666 149.33333333333334 193Z" nodetypes="zzzzz" label="glint_sm" style="display:inline;fill:#ffffff;fill-opacity:1;stroke-width:0.849148"/>
    <path id="glint_lg_11_1_21" d="M195.33333333333334 172.66666666666666C194.33333333333334 179.33333333333334 184.33333333333334 186.33333333333334 177.33333333333334 188.33333333333334C164.33333333333334 191.66666666666666 158.33333333333334 179.33333333333334 159.33333333333334 172.66666666666666C161.33333333333334 165.66666666666666 174.33333333333334 161.33333333333334 182.33333333333334 162.33333333333334C194.33333333333334 163.66666666666666 195.33333333333334 166.66666666666666 195.33333333333334 172.66666666666666Z" style="display:inline;fill:#ffffff;fill-opacity:1;stroke-width:0.892652" nodetypes="sssas" label="glint_lg"/>
</g>

<g id="g_inner_eye_11_1_to_22" inkscape:groupmode="layer" inkscape:label="g_inner_eye_11_1_to_22" style="display:none">
    <path id="iris_11_1_22" d="M241 191.16666666666666C224 221.5 195 234.16666666666666 172.66666666666666 224.16666666666666C150.33333333333334 214.16666666666666 146.33333333333331 183.83333333333334 160.33333333333331 155.16666666666666C174.33333333333331 127.5 206.33333333333331 112.16666666666666 228.66666666666666 122.16666666666666C251 132.16666666666666 257.3333333333333 163.83333333333331 241 191.16666666666666Z" label="iris" style="display:inline;fill:#2affd5;fill-opacity:1;stroke:#1d1d1d;stroke-width:4;stroke-dasharray:none;stroke-opacity:1" nodetypes="sssss"/>
    <path id="iris_shadow_top_11_1_22" d="M161 154.83333333333334C161 154.83333333333334 183 144.83333333333334 195 143.83333333333334C208.33333333333331 142.5 222 143.83333333333334 234.33333333333331 149.16666666666666C242.66666666666666 152.5 256.6666666666667 166.5 256.6666666666667 166.5C259.6666666666667 144.5 252 122.16666666666666 222.66666666666666 117.83333333333333C185 110.16666666666666 160.66666666666666 155.5 160.66666666666666 155.5Z" label="iris_shadow_top" style="display:inline;fill:#2f4f4f;fill-opacity:1;stroke:none;stroke-opacity:0.899705" nodetypes="caacsc"/>
    <path id="pupil_11_1_22" d="M193.66666666666666 196.5C184.66666666666666 192.5 183 177.5 189.66666666666666 166.16666666666666C195.66666666666666 155.16666666666666 208.66666666666666 149.83333333333334 218 153.83333333333334C227 157.83333333333334 228.33333333333331 171.83333333333334 223 180.83333333333334C217 191.5 202.66666666666666 200.5 193.66666666666666 196.5Z" label="pupil" style="display:inline;fill:#0a0a0a;stroke-width:1.15464" nodetypes="sssas"/>
    <path id="glint_sm_11_1_22" d="M193.66666666666666 189.16666666666666C192.33333333333331 193.83333333333334 191 195.5 185.33333333333331 197.5C180.33333333333331 198.83333333333334 177 193.83333333333334 180.33333333333331 188.83333333333334C183 183.83333333333334 181.66666666666666 185.16666666666666 187.66666666666666 183.83333333333334C193.66666666666666 182.5 195 185.16666666666666 193.66666666666666 189.83333333333334Z" nodetypes="zzzzz" label="glint_sm" style="display:inline;fill:#ffffff;fill-opacity:1;stroke-width:0.849148"/>
    <path id="glint_lg_11_1_22" d="M237.66666666666666 159.5C236.66666666666666 165.5 229.33333333333331 171.83333333333334 224.33333333333331 173.16666666666666C214.66666666666666 175.83333333333334 210.66666666666666 164.83333333333334 211 159.5C212.33333333333331 153.16666666666666 222 149.5 228 149.83333333333334C236.66666666666666 151.16666666666666 237.66666666666666 153.5 237.66666666666666 159.5Z" style="display:inline;fill:#ffffff;fill-opacity:1;stroke-width:0.892652" nodetypes="sssas" label="glint_lg"/>
</g>

<g
     inkscape:groupmode="layer"
     id="g_inner_eye_20"
     inkscape:label="g_inner_eye_20"
     style="display:none"><path
       id="iris_20"
       style="display:inline;fill:#2affd5;fill-opacity:1;stroke:#1d1d1d;stroke-width:2.81735;stroke-dasharray:none;stroke-opacity:1"
       d="m 130.81443,153.77319 c 25,25 30,54 15,69 -15,15 -45,7 -68.999997,-15 -23,-22 -30,-54 -15,-69 15,-15 46.999997,-9 68.999997,15 z"
       sodipodi:nodetypes="sssss"
       inkscape:label="iris" /><path
       style="display:inline;fill:#2f4f4f;fill-opacity:1;stroke:none;stroke-opacity:0.899705"
       d="m 55.814433,169.77319 c 0,0 10,-11 16,-14 10,-4 22,-4 32.999997,-3 11,1 33,9 33,9 -11,-14 -35,-31 -49.999997,-31 -43,0 -32,39 -32,39 z"
       id="iris_shadow_top_20"
       sodipodi:nodetypes="caacsc"
       inkscape:label="iris_shadow_top" /><path
       id="pupil_20"
       style="display:inline;fill:#0a0a0a;stroke-width:0.813256"
       d="m 117.81443,203.77319 c -6,6 -20.999997,2 -29.999997,-8 -9,-9 -11,-22 -5,-28 6,-6 19.999997,-2 26.999997,6 9,9 14,24 8,30 z"
       inkscape:label="pupil"
       sodipodi:nodetypes="sssas" /><path
       id="glint_sm_20"
       style="display:inline;fill:#ffffff;fill-opacity:1;stroke-width:0.509489"
       d="m 85.814433,198.77319 c -4,1 -7,-3 -4,-7 2,-4 1,-3 6,-4 5,-1 6,1 5,4.5 -1,3.5 -2,4.5 -7,6.5 z"
       sodipodi:nodetypes="zzzcz"
       inkscape:label="glint_sm" /><path
       id="glint_lg_20"
       style="display:inline;fill:#ffffff;fill-opacity:1;stroke-width:0.535591"
       d="m 120.81443,175.77319 c -1,5 -7,10 -11,11 -8,2 -10.999997,-7 -10.999997,-11 1,-5 8.999997,-8 13.999997,-8 7,1 8,3 8,8 z"
       sodipodi:nodetypes="sssas"
       inkscape:label="glint_lg" /></g><g
     inkscape:groupmode="layer"
     id="g_inner_eye_00"
     inkscape:label="g_inner_eye_00"
     style="display:none"><path
       id="iris_00"
       style="display:inline;fill:#2affd5;fill-opacity:1;stroke:#1d1d1d;stroke-width:2.81735;stroke-dasharray:none;stroke-opacity:1"
       d="m 140,150 c -25,25 -54,30 -69,15 -15,-15 -7,-45 15,-69 22,-23 54,-30 69,-15 15,15 9,47 -15,69 z"
       sodipodi:nodetypes="sssss"
       inkscape:label="iris" /><path
       style="display:inline;fill:#2f4f4f;fill-opacity:1;stroke:none;stroke-opacity:0.899705"
       d="m 84,98 c 0,0 17,-9 26,-10 10,-1 20,0 29,3 9,3 25,14 25,14 C 162,82 152,74 134,72 111,71 84,98 84,98 Z"
       id="iris_shadow_top_00"
       sodipodi:nodetypes="caacsc"
       inkscape:label="iris_shadow_top" /><path
       id="pupil_00"
       style="display:inline;fill:#0a0a0a;stroke-width:0.813256"
       d="m 89,131 c -6,-6 -2,-21 8,-30 9,-9 22,-11 28,-5 6,6 2,20 -6,27 -9,9 -24,14 -30,8 z"
       inkscape:label="pupil"
       sodipodi:nodetypes="sssas" /><path
       id="glint_sm_00"
       style="display:inline;fill:#ffffff;fill-opacity:1;stroke-width:0.625825"
       d="m 85,137 c -4,1 -6,-4 -4,-7 2,-3 3,-4 6,-6 3,-2 8,1 6,6 -3,4 -4,6 -8,7 z"
       sodipodi:nodetypes="zzzcz"
       inkscape:label="glint_sm" /><path
       id="glint_lg_00"
       style="display:inline;fill:#ffffff;fill-opacity:1;stroke-width:0.365764"
       d="m 133,96 c -1,3 -5,6 -8,6 -5,0 -7,-4 -6,-7 2,-2 6,-6 9,-5 3,0 5,2 5,6 z"
       sodipodi:nodetypes="sssas"
       inkscape:label="glint_lg" /></g><g
     inkscape:groupmode="layer"
     id="g_inner_eye_22"
     inkscape:label="g_inner_eye_22"
     style="display:none"><path
       id="iris_22"
       style="display:inline;fill:#2affd5;fill-opacity:1;stroke:#1d1d1d;stroke-width:2.81735;stroke-dasharray:none;stroke-opacity:1"
       d="m 248.5,207.25 c -25,25 -54,30 -69,15 -15,-15 -7,-45 15,-69 22,-23 54,-30 69,-15 15,15 9,47 -15,69 z"
       sodipodi:nodetypes="sssss"
       inkscape:label="iris" /><path
       style="display:inline;fill:#2f4f4f;fill-opacity:1;stroke:none;stroke-opacity:0.899705"
       d="m 195.5,152.25 c 0,0 20,-6 31,-6 10,0 20,2 29,7 6,3 16,14 16,14 4,-22 -4,-27 -17,-35 -21,-13 -59,21 -59,21 z"
       id="iris_shadow_top_22"
       sodipodi:nodetypes="caacsc"
       inkscape:label="iris_shadow_top" /><path
       id="pupil_22"
       style="display:inline;fill:#0a0a0a;stroke-width:0.813256"
       d="m 210.5,200.25 c -6,-6 -2,-21 8,-30 9,-9 22,-11 28,-5 6,6 2,20 -6,27 -9,9 -24,14 -30,8 z"
       inkscape:label="pupil"
       sodipodi:nodetypes="sssas" /><path
       id="glint_sm_22"
       style="display:inline;fill:#ffffff;fill-opacity:1;stroke-width:0.509489"
       d="m 215.5,197.25 c -1,4 -2,5 -7,7 -4,1 -7,-3 -4,-7 2,-4 1,-3 6,-4 5,-1 6,1 5,5 z"
       sodipodi:nodetypes="zzzzz"
       inkscape:label="glint_sm" /><path
       id="glint_lg_22"
       style="display:inline;fill:#ffffff;fill-opacity:1;stroke-width:0.535591"
       d="m 258.5,165.25 c -1,5 -7,10 -11,11 -8,2 -11,-7 -11,-11 1,-5 9,-8 14,-8 7,1 8,3 8,8 z"
       sodipodi:nodetypes="sssas"
       inkscape:label="glint_lg" /></g><g
     inkscape:groupmode="layer"
     id="g_inner_eye_10"
     inkscape:label="g_inner_eye_10"
     style="display:none"
     sodipodi:insensitive="true"><path
       id="iris_10"
       style="display:inline;fill:#2affd5;fill-opacity:1;stroke:#1d1d1d;stroke-width:3.04994;stroke-dasharray:none;stroke-opacity:1"
       d="m 142.75,158 c -1,35 -20,59 -45,59 -25,0 -44,-27 -45,-59 -1,-32 20,-59 45,-59 25,0 46,27 45,59 z"
       sodipodi:nodetypes="sssss"
       inkscape:label="iris" /><path
       style="display:inline;fill:#2f4f4f;fill-opacity:1;stroke:none;stroke-width:0.762485;stroke-opacity:0.899705"
       d="m 51.75,164 c 0,0 16,-19 26,-22 13,-5 28,-3 41,2 9,3 24,21 24,21 1,-19 -9,-65 -45,-65 -26,-1 -47,34 -46,64 z"
       id="iris_shadow_top_10"
       sodipodi:nodetypes="caacsc"
       inkscape:label="iris_shadow_top" /><path
       id="pupil_10"
       style="display:inline;fill:#0a0a0a;stroke-width:0.880395"
       d="m 92.75,183 c -10,0 -19,-13 -19,-27 0,-13 9,-23 20,-23 10,0 18,12 18,23 0,12 -9,27 -19,27 z"
       inkscape:label="pupil"
       sodipodi:nodetypes="sssas" /><path
       id="glint_sm_10"
       style="display:inline;fill:#ffffff;fill-opacity:1;stroke-width:0.647462"
       d="m 86.75,173 c -1,5 -3,8 -7,9 -5,2 -7,-4 -5,-10 3,-6 3,-4 7,-6 4,-2 7,2 5,7 z"
       sodipodi:nodetypes="zzzzz"
       inkscape:label="glint_sm" /><path
       id="glint_lg_10"
       style="display:inline;fill:#ffffff;fill-opacity:1;stroke-width:0.680634"
       d="m 120.75,142 c -3,6 -7,15 -12,16 -9,3 -13,-9 -12,-16 1,-8 10,-11 16,-11 10,0 12,3 8,11 z"
       sodipodi:nodetypes="sssas"
       inkscape:label="glint_lg" /></g><g
     inkscape:groupmode="layer"
     id="g_inner_eye_12"
     inkscape:label="g_inner_eye_12"
     style="display:none"><path
       id="iris_12"
       style="display:inline;fill:#2affd5;fill-opacity:1;stroke:#1d1d1d;stroke-width:3.04994;stroke-dasharray:none;stroke-opacity:1"
       d="m 272,155 c -1,35 -20,59 -45,59 -25,0 -44,-27 -45,-59 -1,-32 20,-59 45,-59 25,0 46,27 45,59 z"
       sodipodi:nodetypes="sssss"
       inkscape:label="iris" /><path
       style="display:inline;fill:#2f4f4f;fill-opacity:1;stroke:none;stroke-width:0.762485;stroke-opacity:0.899705"
       d="m 181,161 c 0,0 16,-19 26,-22 13,-5 28,-3 41,2 9,3 24,21 24,21 1,-19 -9,-64 -45,-65 -30,-1 -47,34 -46,64 z"
       id="iris_shadow_top_12"
       sodipodi:nodetypes="caacsc"
       inkscape:label="iris_shadow_top" /><path
       id="pupil_12"
       style="display:inline;fill:#0a0a0a;stroke-width:0.880395"
       d="m 234,180 c -10,0 -19,-13 -19,-27 0,-13 9,-23 20,-23 10,0 18,12 18,23 0,12 -9,27 -19,27 z"
       inkscape:label="pupil"
       sodipodi:nodetypes="sssas" /><path
       id="glint_sm_12"
       style="display:inline;fill:#ffffff;fill-opacity:1;stroke-width:0.647462"
       d="m 228,170 c -1,5 -3,8 -7,9 -5,2 -7,-4 -5,-10 3,-6 3,-4 7,-6 4,-2 7,2 5,7 z"
       sodipodi:nodetypes="zzzzz"
       inkscape:label="glint_sm" /><path
       id="glint_lg_12"
       style="display:inline;fill:#ffffff;fill-opacity:1;stroke-width:0.680634"
       d="m 262,139 c -3,6 -7,15 -12,16 -9,3 -13,-9 -12,-16 1,-8 10,-11 16,-11 10,0 12,3 8,11 z"
       sodipodi:nodetypes="sssas"
       inkscape:label="glint_lg" /></g><g
     inkscape:groupmode="layer"
     id="g_inner_eye_01"
     inkscape:label="g_inner_eye_01"
     style="display:none"><path
       id="iris_01"
       style="display:inline;fill:#2affd5;fill-opacity:1;stroke:#1d1d1d;stroke-width:3.74779;stroke-dasharray:none;stroke-opacity:1"
       d="m 226,137 c -1,36 -30,60 -67,60 -37,0 -65,-27 -67,-60 -2,-32 30,-60 67,-60 37,0 68,27 67,60 z"
       sodipodi:nodetypes="sssss"
       inkscape:label="iris" /><path
       style="display:inline;fill:#2f4f4f;fill-opacity:1;stroke:none;stroke-opacity:0.899705"
       d="m 93,149 c 0,0 24,-24 40,-29 19,-6 41,-5 59,2 14,5 34,28 34,28 1,-22 -3,-74 -70,-75 -74,-1 -64,74 -64,74 z"
       id="iris_shadow_top_01"
       sodipodi:nodetypes="caacsc"
       inkscape:label="iris_shadow_top" /><path
       id="pupil_01"
       style="display:inline;fill:#0a0a0a;stroke-width:1.0208"
       d="m 159,142 c -15,0 -28,-12 -28,-24 0,-12 13,-21 29,-21 15,0 27,11 27,21 0,11 -13,24 -28,24 z"
       inkscape:label="pupil"
       sodipodi:nodetypes="sssas" /><path
       id="glint_sm_01"
       style="display:inline;fill:#ffffff;fill-opacity:1;stroke-width:0.849148"
       d="m 144,135 c -2,6 -4,9 -11,11 -7,2 -9,-2 -5,-9 4,-7 0,-6 8,-8 8,-2 10,0 8,6 z"
       sodipodi:nodetypes="zzzzz"
       inkscape:label="glint_sm" /><path
       id="glint_lg_01"
       style="display:inline;fill:#ffffff;fill-opacity:1;stroke-width:0.574776"
       d="m 190,100 c -1,6 -4,7 -8,8 -8,3 -14,-4 -11,-9 4,-6 6,-7 10,-7 4,0 9,2 9,7 z"
       sodipodi:nodetypes="sssas"
       inkscape:label="glint_lg" /></g><g
     inkscape:groupmode="layer"
     id="g_inner_eye_21"
     inkscape:label="g_inner_eye_21"
     style="display:none"><path
       id="iris_21"
       style="display:inline;fill:#2affd5;fill-opacity:1;stroke:#1d1d1d;stroke-width:3.37785;stroke-dasharray:none;stroke-opacity:1"
       d="m 226,187 c -1,29 -30,49 -67,49 -37,0 -65,-22 -67,-49 -2,-26 30,-49 67,-49 37,0 68,22 67,49 z"
       sodipodi:nodetypes="sssss"
       inkscape:label="iris" /><path
       style="display:inline;fill:#2f4f4f;fill-opacity:1;stroke:none;stroke-width:0.861906;stroke-opacity:0.899705"
       d="m 91,192 c 0,0 24,-15 39,-18 19,-4 41,-3 60,1 13,3 35,18 35,18 1,-16 -3,-58 -70,-56 -67,2 -65,54 -65,54 z"
       id="iris_shadow_top_21"
       sodipodi:nodetypes="caacsc"
       inkscape:label="iris_shadow_top" /><path
       id="pupil_21"
       style="display:inline;fill:#0a0a0a;stroke-width:0.986447"
       d="m 159,215 c -15,0 -28,-11 -28,-23 0,-11 13,-20 29,-20 15,0 27,10 27,20 0,10 -13,23 -28,23 z"
       inkscape:label="pupil"
       sodipodi:nodetypes="sssas" /><path
       id="glint_sm_21"
       style="display:inline;fill:#ffffff;fill-opacity:1;stroke-width:0.719032"
       d="m 149,203 c -2,4 -4,6 -11,8 -7,1 -11,-4 -7,-9 4,-5 2,-4 10,-5 8,-1 10,1 8,6 z"
       sodipodi:nodetypes="zzzzz"
       inkscape:label="glint_sm" /><path
       id="glint_lg_21"
       style="display:inline;fill:#ffffff;fill-opacity:1;stroke-width:0.75587"
       d="m 195,185 c -1,6 -11,12 -18,14 -13,3 -19,-8 -18,-14 2,-6 15,-10 23,-9 12,1 13,4 13,9 z"
       sodipodi:nodetypes="sssas"
       inkscape:label="glint_lg" /></g><g
     inkscape:groupmode="layer"
     id="g_inner_eye_02"
     inkscape:label="g_inner_eye_02"
     style="display:none"><path
       id="iris_02"
       style="display:inline;fill:#2affd5;fill-opacity:1;stroke:#1d1d1d;stroke-width:2.85699;stroke-dasharray:none;stroke-opacity:1"
       d="m 240,97 c 24,25 29,54 13,70 -16,16 -46,9 -70,-13 -23,-21 -29,-54 -13,-70 16,-16 47,-10 70,13 z"
       sodipodi:nodetypes="sssss"
       inkscape:label="iris" /><path
       style="display:inline;fill:#2f4f4f;fill-opacity:1;stroke:none;stroke-width:0.714247;stroke-opacity:0.899705"
       d="m 162,110 c 0,0 17,-11 27,-14 9,-3 19,-3 29,-1 10,1 29,10 29,10 -13,-14 -30,-31 -55,-29 -35,1 -30,34 -30,34 z"
       id="iris_shadow_top_02"
       sodipodi:nodetypes="caacsc"
       inkscape:label="iris_shadow_top" /><path
       id="pupil_02"
       style="display:inline;fill:#0a0a0a;stroke-width:0.824698"
       d="m 236,137 c -6,6 -21,3 -31,-7 -9,-9 -11,-22 -4,-29 6,-6 20,-3 28,5 8,8 13,24 7,31 z"
       inkscape:label="pupil"
       sodipodi:nodetypes="sssas" /><path
       id="glint_sm_02"
       style="display:inline;fill:#ffffff;fill-opacity:1;stroke-width:0.611387"
       d="m 213,123 c -1,4 -3,6 -8,8 -5,1 -10,-4 -5,-9 5,-5 2,-2 7,-5 5,-3 7,1 6,6 z"
       sodipodi:nodetypes="zzzzz"
       inkscape:label="glint_sm" /><path
       id="glint_lg_02"
       style="display:inline;fill:#ffffff;fill-opacity:1;stroke-width:0.428473"
       d="m 228,118 c -6,2 -9,-5 -9,-9 0,-4 7,-7 11,-6 6,1 6,2 6,6 0,4 -4,8 -8,9 z"
       sodipodi:nodetypes="ssacs"
       inkscape:label="glint_lg" /></g><g id="g_upper_lid_11" inkscape:groupmode="layer" inkscape:label="g_upper_lid_11">
    <path id="upper_lid_shadow_neutral" d="M164.42268 94.268041C192.8938 93.101292 218.03093 94.082474 248.03092800000002 112.08247C267.030928 123.08247 289 147 289 147L289 147C291 148 311 155 255 192C255 192 262.27994 178.39962 264.237113 171.01031C265.696644 165.49985 268.461302 159.14173 266 154C255.42426 131.90698 228.18133 119.59040999999999 204.31959 114.06186C166.92745000000002 105.39842999999999 126.26366000000002 115.21593 89.98969 127.76289C67.92731 135.39414 30.164949999999976 164.17526 30.164949999999976 164.17526C30.164949999999976 164.17526 53.29067999999995 132.75427000000002 69.50514999999999 122.78351C97.64635999999999 105.47864000000001 131.41425999999998 95.62073000000001 164.42267999999999 94.26804100000001Z" nodetypes="accscaaaacaa" style="display:inline;fill:#1d1c4f;fill-opacity:1;stroke:none;stroke-opacity:1" label="upper_lid_shadow"/>
    <path id="upper_lid_shine_11" d="M246 116C221 100 190 90 160 89C127 88 93 96 65 112C49 121 26 151 26 151C26 151 27 122 37 112C67 81 118 71 162 73C204 74 255 99 280 118C300 133 297 169 297 169C297 169 266 129 245 116Z" label="upper_lid_shine" nodetypes="aaacaasca" style="display:inline;fill:#9652c2;fill-opacity:1;stroke:#622e84;stroke-width:2;stroke-dasharray:none;stroke-opacity:1"/>
    <path id="upper_lid_11" d="M296 173C296 173 275 142 257 127C236 110 194 98 160 97C129 97 96 106 69 123C34 144 25 176 25 176C25 176 21 156 28 145C53 104 114 88 159 88C204 88 248 109 276 134C303 159 296 173 296 173Z" style="display:inline;fill:#73369a;fill-opacity:1;stroke:#000000;stroke-width:1;stroke-dasharray:none;stroke-opacity:1" nodetypes="csascszzc" label="upper_lid"/>
</g>
<g id="g_lower_lid_11" inkscape:groupmode="layer" inkscape:label="g_lower_lid_11">
    <path id="lower_lid_bulge_11" d="M25 173C25 173 114 204 160 204C204 204 270 177 289 174C289 174 240 237 160 239C80 241 25 174 25 174Z" style="display:inline;fill:#6b8e23;fill-opacity:1;stroke:#000000;stroke-opacity:1" nodetypes="caczc" label="lower_lid_bulge"/>
    <path id="lower_lid_shine_11" d="M38 178C38 178 119 206 161 205C201 205 262 179 277 176C277 176 213 224 159 222C105 221 38 178 38 178Z" label="lower_lid_shine" style="display:inline;fill:#b2d964;fill-opacity:1;stroke:#000000;stroke-width:0.8;stroke-opacity:1" nodetypes="caccc"/>
</g>
</svg>
