<?xml version="1.0" encoding="UTF-8" standalone="no"?>
<!-- Created with Inkscape (http://www.inkscape.org/) -->

<svg
   width="320"
   height="240"
   viewBox="0 0 320 240"
   version="1.1"
   id="svg1"
   xml:space="preserve"
   inkscape:version="1.4.2 (ebf0e940, 2025-05-08)"
   inkscape:export-filename="eyestack-main-neutral.png"
   inkscape:export-xdpi="96"
   inkscape:export-ydpi="96"
   sodipodi:docname="eyestack-main.svg"
   xmlns:inkscape="http://www.inkscape.org/namespaces/inkscape"
   xmlns:sodipodi="http://sodipodi.sourceforge.net/DTD/sodipodi-0.dtd"
   xmlns="http://www.w3.org/2000/svg"
   xmlns:svg="http://www.w3.org/2000/svg"><sodipodi:namedview
     id="namedview1"
     pagecolor="#505050"
     bordercolor="#eeeeee"
     borderopacity="1"
     inkscape:showpageshadow="0"
     inkscape:pageopacity="0"
     inkscape:pagecheckerboard="true"
     inkscape:deskcolor="#505050"
     inkscape:document-units="px"
     inkscape:zoom="3"
     inkscape:cx="160.16667"
     inkscape:cy="119.66667"
     inkscape:window-width="2352"
     inkscape:window-height="1147"
     inkscape:window-x="0"
     inkscape:window-y="25"
     inkscape:window-maximized="0"
     inkscape:current-layer="g_inner_eye_21"
     showgrid="false"
     showguides="true"><sodipodi:guide
       position="160,155.34247"
       orientation="1,0"
       id="guide1"
       inkscape:locked="false" /><sodipodi:guide
       position="93.424658,120"
       orientation="0,-1"
       id="guide2"
       inkscape:locked="false" /><sodipodi:guide
       position="130.66667,84"
       orientation="0,-1"
       id="guide3"
       inkscape:locked="false" /></sodipodi:namedview><defs
     id="defs1" /><g
     inkscape:groupmode="layer"
     id="g_base_color"
     inkscape:label="g_neutral_bg_color"
     style="display:inline"><rect
       style="fill:#556b2f;fill-opacity:1;stroke:#808080;stroke-opacity:0.899705"
       id="rect12"
       width="320"
       height="240"
       x="0"
       y="0"
       inkscape:label="color_rect1" /></g><g
     inkscape:groupmode="layer"
     id="g1"
     inkscape:label="g_surpise_bg_color"
     style="display:none"><rect
       style="display:inline;fill:#9540bf;fill-opacity:1;stroke:#808080;stroke-opacity:0.899705"
       id="rect1"
       width="320"
       height="240"
       x="0"
       y="0"
       inkscape:label="color_rect2" /></g><g
     inkscape:groupmode="layer"
     id="g_symmetric_testo"
     inkscape:label="g_symmetric_testo"
     style="display:none;fill:#fbf394;fill-opacity:1"><ellipse
       style="fill:#fbf394;fill-opacity:1;stroke:#1d1d1d"
       id="grande_ellipse"
       cx="75.934441"
       cy="186.83383"
       rx="180"
       ry="20"
       transform="rotate(-30)" /></g><g
     inkscape:groupmode="layer"
     id="g_face_background_11"
     inkscape:label="g_face_background_11"
     style="display:inline"><path
       style="display:inline;fill:#0d0b0a;fill-opacity:1;stroke:#000000;stroke-opacity:1"
       d="m 8,61 c 50,-38 95,-46 146,-49 32,-2 65,3 96,12 19,5 37,12 52,25 25,18 6,17 -6,14 C 240,47 236,40 204,35 163,30 120,26 80,37 56,43 8,61 8,61 Z"
       id="eyebrow"
       sodipodi:nodetypes="csassasc"
       inkscape:label="eyebrow" /></g><g
     inkscape:groupmode="layer"
     id="g_eyeball_bg"
     inkscape:label="g_eyeball_bg"
     style="display:inline"><ellipse
       style="display:inline;fill:#fefbe0;fill-opacity:1;stroke:#1d1d1d;stroke-width:0.982661"
       id="sclera"
       cx="162.85362"
       cy="156.18951"
       rx="110"
       ry="82"
       inkscape:label="sclera" /></g><g
     inkscape:groupmode="layer"
     id="g_inner_eye_11"
     inkscape:label="g_inner_eye_11"
     style="display:none"
     sodipodi:insensitive="true"><path
       id="iris_11"
       style="display:inline;fill:#2affd5;fill-opacity:1;stroke:#1d1d1d;stroke-width:4;stroke-dasharray:none;stroke-opacity:1"
       d="m 226,159 c -1,41 -30,69 -67,69 -37,0 -65,-31 -67,-69 -2,-37 30,-69 67,-69 37,0 68,31 67,69 z"
       sodipodi:nodetypes="sssss"
       inkscape:label="iris" /><path
       style="display:inline;fill:#2f4f4f;fill-opacity:1;stroke:none;stroke-opacity:0.899705"
       d="m 92.666667,163 c 0,0 24.479753,-20.092 39.333333,-24 19.3525,-5.09168 41,-4 60,2 13,4 35,24 35,24 1,-22 -2.8124,-77.610897 -69.81271,-75.110886 C 90.186983,92.389125 92.666667,163 92.666667,163 Z"
       id="iris_shadow_top_11"
       sodipodi:nodetypes="caacsc"
       inkscape:label="iris_shadow_top" /><path
       id="pupil_11"
       style="display:inline;fill:#0a0a0a;stroke-width:1.15464"
       d="m 160,189 c -15,0 -28,-15 -28,-31 0,-15 13,-27 29,-27 15,0 27,14 27,27 0,14 -13,31 -28,31 z"
       inkscape:label="pupil"
       sodipodi:nodetypes="sssas" /><path
       id="glint_sm_11"
       style="display:inline;fill:#ffffff;fill-opacity:1;stroke-width:0.849148"
       d="m 150,173 c -2,6 -4,9 -11,11 -7,2 -11,-5 -7,-12 4,-7 2,-5 10,-7 8,-2 10,2 8,8 z"
       sodipodi:nodetypes="zzzzz"
       inkscape:label="glint_sm" /><path
       id="glint_lg_11"
       style="display:inline;fill:#ffffff;fill-opacity:1;stroke-width:0.892652"
       d="m 196,148 c -1,8 -11,17 -18,19 -13,4 -19,-11 -18,-19 2,-9 15,-14 23,-13 12,2 13,5 13,13 z"
       sodipodi:nodetypes="sssas"
       inkscape:label="glint_lg" /></g>
<g id="g_inner_eye_11_0_to_01" inkscape:groupmode="layer" inkscape:label="g_inner_eye_11_0_to_01" style="display:none">
    <path id="iris_11_0_01" d="M226 151.66666666666666C225 191 196 217.66666666666666 159 217.66666666666666C122 217.66666666666666 94 188 92 151.66666666666666C90 116.33333333333333 122 85.66666666666667 159 85.66666666666667C196 85.66666666666667 227 115.33333333333333 226 151.66666666666666Z" nodetypes="sssss" label="iris" style="display:inline;fill:#2affd5;fill-opacity:1;stroke:#1d1d1d;stroke-width:4;stroke-dasharray:none;stroke-opacity:1"/>
    <path id="iris_shadow_top_11_0_01" d="M92.777778 158.33333333333334C92.777778 158.33333333333334 117.09761333333334 136.93866666666668 132.33333333333334 132.66666666666666C151.56833333333333 127.27221333333334 173.33333333333334 128.33333333333334 192 134.66666666666666C205.33333333333334 139 226.66666666666666 160 226.66666666666666 160C227.66666666666666 138 223.79173333333333 83.59273533333334 156.79152666666667 84.92607600000001C87.45798866666667 86.25941666666667 92.44444466666667 158.33333333333334 92.44444466666667 158.33333333333334Z" style="display:inline;fill:#2f4f4f;fill-opacity:1;stroke:none;stroke-opacity:0.899705" label="iris_shadow_top" nodetypes="caacsc"/>
    <path id="pupil_11_0_01" d="M159.66666666666666 173.33333333333334C144.66666666666666 173.33333333333334 131.66666666666666 159.33333333333334 131.66666666666666 144.66666666666666C131.66666666666666 130.66666666666666 144.66666666666666 119.66666666666667 160.66666666666666 119.66666666666667C175.66666666666666 119.66666666666667 187.66666666666666 132.66666666666666 187.66666666666666 144.66666666666666C187.66666666666666 157.66666666666666 174.66666666666666 173.33333333333334 159.66666666666666 173.33333333333334Z" label="pupil" nodetypes="sssas" style="display:inline;fill:#0a0a0a;stroke-width:1.15464"/>
    <path id="glint_sm_11_0_01" d="M148 160.33333333333334C146 166.33333333333334 144 169.33333333333334 137 171.33333333333334C130 173.33333333333334 126.66666666666667 167.33333333333334 130.66666666666666 160.33333333333334C134.66666666666666 153.33333333333334 132 155 140 153C148 151 150 154.33333333333334 148 160.33333333333334Z" label="glint_sm" nodetypes="zzzzz" style="display:inline;fill:#ffffff;fill-opacity:1;stroke-width:0.849148"/>
    <path id="glint_lg_11_0_01" d="M194 132C193 139.33333333333334 185.33333333333334 145.66666666666666 179.33333333333334 147.33333333333334C168 151 162 138.66666666666666 163.66666666666666 131.66666666666666C166.33333333333334 123.66666666666667 175.66666666666666 120 182.33333333333334 120.66666666666667C191.66666666666666 122 194 124.66666666666667 194 131.66666666666666Z" style="display:inline;fill:#ffffff;fill-opacity:1;stroke-width:0.892652" nodetypes="sssas" label="glint_lg"/>
</g>
<g id="g_inner_eye_11_0_to_10" inkscape:groupmode="layer" inkscape:label="g_inner_eye_11_0_to_10" style="display:none">
    <path id="iris_11_0_10" d="M198.25 158.66666666666666C197.25 197.66666666666666 171.58333333333334 224.33333333333334 138.58333333333334 224.33333333333334C105.58333333333334 224.33333333333334 80.58333333333333 194.66666666666666 78.91666666666667 158.66666666666666C77.25 123.33333333333333 105.58333333333334 93 138.58333333333334 93C171.58333333333334 93 199.25 122.66666666666667 198.25 158.66666666666666Z" nodetypes="sssss" label="iris" style="display:inline;fill:#2affd5;fill-opacity:1;stroke:#1d1d1d;stroke-width:4;stroke-dasharray:none;stroke-opacity:1"/>
    <path id="iris_shadow_top_11_0_10" d="M79.027778 163.33333333333334C79.027778 163.33333333333334 100.68094666666667 143.60533333333333 113.91666666666667 140C131.15166666666667 134.93888 150.58333333333334 136.33333333333334 167.58333333333334 142C179.25 145.66666666666666 198.91666666666666 165 198.91666666666666 165C199.91666666666666 144 194.04173333333333 91.59273533333334 137.37486 93.25940933333334C84.041322 94.59275000000001 78.69444466666667 153.33333333333334 79.027778 163.33333333333334Z" style="display:inline;fill:#2f4f4f;fill-opacity:1;stroke:none;stroke-opacity:0.899705" label="iris_shadow_top" nodetypes="caacsc"/>
    <path id="pupil_11_0_10" d="M137.58333333333334 187C124.25 187 112.58333333333334 172.66666666666666 112.58333333333334 157.33333333333334C112.58333333333334 143 124.25 131.66666666666666 138.58333333333334 131.66666666666666C151.91666666666666 131.66666666666666 162.58333333333334 145 162.58333333333334 157.33333333333334C162.58333333333334 170.66666666666666 150.91666666666666 187 137.58333333333334 187Z" label="pupil" nodetypes="sssas" style="display:inline;fill:#0a0a0a;stroke-width:1.15464"/>
    <path id="glint_sm_11_0_10" d="M128.91666666666666 173C127.25 178.66666666666666 125.25 181.66666666666666 119.25 183.33333333333334C112.91666666666667 185.33333333333334 109.58333333333334 178.66666666666666 112.91666666666667 172C116.58333333333334 165.33333333333334 115.25 167.33333333333334 121.91666666666667 165.33333333333334C128.58333333333334 163.33333333333334 130.91666666666666 167.33333333333334 128.91666666666666 173Z" label="glint_sm" nodetypes="zzzzz" style="display:inline;fill:#ffffff;fill-opacity:1;stroke-width:0.849148"/>
    <path id="glint_lg_11_0_10" d="M170.91666666666666 146C169.25 153.33333333333334 161.25 162.33333333333334 154.91666666666666 164C143.25 167.66666666666666 137.91666666666666 153.66666666666666 138.91666666666666 146C140.58333333333334 137.33333333333334 152.25 133 159.58333333333334 133.66666666666666C170.91666666666666 135 172.25 138 170.91666666666666 146Z" style="display:inline;fill:#ffffff;fill-opacity:1;stroke-width:0.892652" nodetypes="sssas" label="glint_lg"/>
</g>
<g id="g_inner_eye_11_0_to_12" inkscape:groupmode="layer" inkscape:label="g_inner_eye_11_0_to_12" style="display:none">
    <path id="iris_11_0_12" d="M241.33333333333334 157.66666666666666C240.33333333333334 196.66666666666666 214.66666666666666 223.33333333333334 181.66666666666666 223.33333333333334C148.66666666666666 223.33333333333334 123.66666666666666 193.66666666666666 122 157.66666666666666C120.33333333333333 122.33333333333333 148.66666666666666 92 181.66666666666666 92C214.66666666666666 92 242.33333333333334 121.66666666666667 241.33333333333334 157.66666666666666Z" nodetypes="sssss" label="iris" style="display:inline;fill:#2affd5;fill-opacity:1;stroke:#1d1d1d;stroke-width:4;stroke-dasharray:none;stroke-opacity:1"/>
    <path id="iris_shadow_top_11_0_12" d="M122.11111133333333 162.33333333333334C122.11111133333333 162.33333333333334 143.76428 142.60533333333333 157 139C174.23499999999999 133.93888 193.66666666666666 135.33333333333334 210.66666666666666 141C222.33333333333334 144.66666666666666 242 164 242 164C243 143 237.12506666666667 90.92606866666667 180.45819333333336 92.25940933333334C125.791322 93.59275000000001 121.777778 152.33333333333334 122.11111133333333 162.33333333333334Z" style="display:inline;fill:#2f4f4f;fill-opacity:1;stroke:none;stroke-opacity:0.899705" label="iris_shadow_top" nodetypes="caacsc"/>
    <path id="pupil_11_0_12" d="M184.66666666666666 186C171.33333333333334 186 159.66666666666666 171.66666666666666 159.66666666666666 156.33333333333334C159.66666666666666 142 171.33333333333334 130.66666666666666 185.66666666666666 130.66666666666666C199 130.66666666666666 209.66666666666666 144 209.66666666666666 156.33333333333334C209.66666666666666 169.66666666666666 198 186 184.66666666666666 186Z" label="pupil" nodetypes="sssas" style="display:inline;fill:#0a0a0a;stroke-width:1.15464"/>
    <path id="glint_sm_11_0_12" d="M176 172C174.33333333333334 177.66666666666666 172.33333333333334 180.66666666666666 166.33333333333334 182.33333333333334C160 184.33333333333334 156.66666666666666 177.66666666666666 160 171C163.66666666666666 164.33333333333334 162.33333333333334 166.33333333333334 169 164.33333333333334C175.66666666666666 162.33333333333334 178 166.33333333333334 176 172Z" label="glint_sm" nodetypes="zzzzz" style="display:inline;fill:#ffffff;fill-opacity:1;stroke-width:0.849148"/>
    <path id="glint_lg_11_0_12" d="M218 145C216.33333333333334 152.33333333333334 208.33333333333334 161.33333333333334 202 163C190.33333333333334 166.66666666666666 185 152.66666666666666 186 145C187.66666666666666 136.33333333333334 199.33333333333334 132 206.66666666666666 132.66666666666666C218 134 219.33333333333334 137 218 145Z" style="display:inline;fill:#ffffff;fill-opacity:1;stroke-width:0.892652" nodetypes="sssas" label="glint_lg"/>
</g>
<g id="g_inner_eye_11_0_to_21" inkscape:groupmode="layer" inkscape:label="g_inner_eye_11_0_to_21" style="display:none">
    <path id="iris_11_0_21" d="M226 168.33333333333334C225 205.33333333333334 196 230.66666666666666 159 230.66666666666666C122 230.66666666666666 94 202.66666666666666 92 168.33333333333334C90 135 122 106 159 106C196 106 227 134 226 168.33333333333334Z" nodetypes="sssss" label="iris" style="display:inline;fill:#2affd5;fill-opacity:1;stroke:#1d1d1d;stroke-width:4;stroke-dasharray:none;stroke-opacity:1"/>
    <path id="iris_shadow_top_11_0_21" d="M92.11111133333334 172.66666666666666C92.11111133333334 172.66666666666666 116.43094666666667 154.27200000000002 131.33333333333334 150.66666666666666C150.56833333333333 145.93888 172.33333333333334 147 191.33333333333334 152.33333333333334C204.33333333333334 156 226.33333333333334 174.33333333333334 226.33333333333334 174.33333333333334C227.33333333333334 154.33333333333334 223.4584 103.25940200000001 156.45819333333336 105.59274266666667C89.45798866666667 107.92608333333334 91.777778 172.33333333333334 91.777778 172.33333333333334Z" style="display:inline;fill:#2f4f4f;fill-opacity:1;stroke:none;stroke-opacity:0.899705" label="iris_shadow_top" nodetypes="caacsc"/>
    <path id="pupil_11_0_21" d="M159.66666666666666 197.66666666666666C144.66666666666666 197.66666666666666 131.66666666666666 184 131.66666666666666 169.33333333333334C131.66666666666666 155.66666666666666 144.66666666666666 144.66666666666666 160.66666666666666 144.66666666666666C175.66666666666666 144.66666666666666 187.66666666666666 157.33333333333334 187.66666666666666 169.33333333333334C187.66666666666666 182 174.66666666666666 197.66666666666666 159.66666666666666 197.66666666666666Z" label="pupil" nodetypes="sssas" style="display:inline;fill:#0a0a0a;stroke-width:1.15464"/>
    <path id="glint_sm_11_0_21" d="M149.66666666666666 183C147.66666666666666 188.33333333333334 145.66666666666666 191 138.66666666666666 193C131.66666666666666 194.66666666666666 127.66666666666667 188.33333333333334 131.66666666666666 182C135.66666666666666 175.66666666666666 133.66666666666666 177.33333333333334 141.66666666666666 175.66666666666666C149.66666666666666 174 151.66666666666666 177.33333333333334 149.66666666666666 183Z" label="glint_sm" nodetypes="zzzzz" style="display:inline;fill:#ffffff;fill-opacity:1;stroke-width:0.849148"/>
    <path id="glint_lg_11_0_21" d="M195.66666666666666 160.33333333333334C194.66666666666666 167.66666666666666 184.66666666666666 175.66666666666666 177.66666666666666 177.66666666666666C164.66666666666666 181.33333333333334 158.66666666666666 167.66666666666666 159.66666666666666 160.33333333333334C161.66666666666666 152.33333333333334 174.66666666666666 147.66666666666666 182.66666666666666 148.66666666666666C194.66666666666666 150.33333333333334 195.66666666666666 153.33333333333334 195.66666666666666 160.33333333333334Z" style="display:inline;fill:#ffffff;fill-opacity:1;stroke-width:0.892652" nodetypes="sssas" label="glint_lg"/>
</g>
<g id="g_inner_eye_11_1_to_01" inkscape:groupmode="layer" inkscape:label="g_inner_eye_11_1_to_01" style="display:none">
    <path id="iris_11_1_01" d="M226 144.33333333333334C225 182 196 207.33333333333334 159 207.33333333333334C122 207.33333333333334 94 179 92 144.33333333333334C90 110.66666666666667 122 81.33333333333333 159 81.33333333333333C196 81.33333333333333 227 109.66666666666667 226 144.33333333333334Z" nodetypes="sssss" label="iris" style="display:inline;fill:#2affd5;fill-opacity:1;stroke:#1d1d1d;stroke-width:4;stroke-dasharray:none;stroke-opacity:1"/>
    <path id="iris_shadow_top_11_1_01" d="M92.888889 153.66666666666666C92.888889 153.66666666666666 117.04880666666666 130.96933333333334 132.66666666666666 126.33333333333333C151.78416666666666 120.63610666666666 173.66666666666666 121.66666666666667 192 128.33333333333334C205.66666666666666 133 226.33333333333334 155 226.33333333333334 155C227.33333333333334 133 223.39586666666668 79.79636766666667 156.39576333333335 79.963038C84.72899433333333 80.12970833333334 92.22222233333333 153.66666666666666 92.22222233333333 153.66666666666666Z" style="display:inline;fill:#2f4f4f;fill-opacity:1;stroke:none;stroke-opacity:0.899705" label="iris_shadow_top" nodetypes="caacsc"/>
    <path id="pupil_11_1_01" d="M159.33333333333334 157.66666666666666C144.33333333333334 157.66666666666666 131.33333333333334 144.66666666666666 131.33333333333334 131.33333333333334C131.33333333333334 118.33333333333334 144.33333333333334 108.33333333333334 160.33333333333334 108.33333333333334C175.33333333333334 108.33333333333334 187.33333333333334 120.33333333333334 187.33333333333334 131.33333333333334C187.33333333333334 143.33333333333334 174.33333333333334 157.66666666666666 159.33333333333334 157.66666666666666Z" label="pupil" nodetypes="sssas" style="display:inline;fill:#0a0a0a;stroke-width:1.15464"/>
    <path id="glint_sm_11_1_01" d="M146 147.66666666666666C144 153.66666666666666 142 156.66666666666666 135 158.66666666666666C128 160.66666666666666 125.33333333333333 155.66666666666666 129.33333333333334 148.66666666666666C133.33333333333334 141.66666666666666 130 143 138 141C146 139 148 141.66666666666666 146 147.66666666666666Z" label="glint_sm" nodetypes="zzzzz" style="display:inline;fill:#ffffff;fill-opacity:1;stroke-width:0.849148"/>
    <path id="glint_lg_11_1_01" d="M192 116C191 122.66666666666667 185.66666666666666 126.33333333333334 180.66666666666666 127.66666666666667C171 131 165 121.33333333333334 167.33333333333334 115.33333333333334C170.66666666666666 108.33333333333334 176.33333333333334 106 181.66666666666666 106.33333333333334C188.33333333333334 107 192 109.33333333333334 192 115.33333333333334Z" style="display:inline;fill:#ffffff;fill-opacity:1;stroke-width:0.892652" nodetypes="sssas" label="glint_lg"/>
</g>
<g id="g_inner_eye_11_1_to_10" inkscape:groupmode="layer" inkscape:label="g_inner_eye_11_1_to_10" style="display:none">
    <path id="iris_11_1_10" d="M170.5 158.33333333333334C169.5 195.33333333333334 147.16666666666669 220.66666666666666 118.16666666666667 220.66666666666666C89.16666666666667 220.66666666666666 67.16666666666667 192.33333333333334 65.83333333333334 158.33333333333334C64.5 124.66666666666667 89.16666666666667 96 118.16666666666667 96C147.16666666666669 96 171.5 124.33333333333333 170.5 158.33333333333334Z" nodetypes="sssss" label="iris" style="display:inline;fill:#2affd5;fill-opacity:1;stroke:#1d1d1d;stroke-width:4;stroke-dasharray:none;stroke-opacity:1"/>
    <path id="iris_shadow_top_11_1_10" d="M65.388889 163.66666666666666C65.388889 163.66666666666666 84.21547333333334 144.30266666666668 95.83333333333334 141C110.95083333333334 135.96944 128.16666666666669 137.66666666666666 143.16666666666669 143C153.5 146.33333333333334 170.83333333333334 165 170.83333333333334 165C171.83333333333334 145 163.89586666666668 95.79636766666667 117.56243 96.62970466666667C77.895661 96.796375 64.72222233333333 143.66666666666666 65.388889 163.66666666666666Z" style="display:inline;fill:#2f4f4f;fill-opacity:1;stroke:none;stroke-opacity:0.899705" label="iris_shadow_top" nodetypes="caacsc"/>
    <path id="pupil_11_1_10" d="M115.16666666666667 185C103.5 185 93.16666666666667 171.33333333333334 93.16666666666667 156.66666666666666C93.16666666666667 143 103.5 132.33333333333334 116.16666666666667 132.33333333333334C127.83333333333334 132.33333333333334 137.16666666666669 145 137.16666666666669 156.66666666666666C137.16666666666669 169.33333333333334 126.83333333333334 185 115.16666666666667 185Z" label="pupil" nodetypes="sssas" style="display:inline;fill:#0a0a0a;stroke-width:1.15464"/>
    <path id="glint_sm_11_1_10" d="M107.83333333333334 173C106.5 178.33333333333334 104.5 181.33333333333334 99.5 182.66666666666666C93.83333333333334 184.66666666666666 91.16666666666667 178.33333333333334 93.83333333333334 172C97.16666666666667 165.66666666666666 96.5 167.66666666666666 101.83333333333334 165.66666666666666C107.16666666666667 163.66666666666666 109.83333333333334 167.66666666666666 107.83333333333334 173Z" label="glint_sm" nodetypes="zzzzz" style="display:inline;fill:#ffffff;fill-opacity:1;stroke-width:0.849148"/>
    <path id="glint_lg_11_1_10" d="M145.83333333333334 144C143.5 150.66666666666666 137.5 159.66666666666666 131.83333333333334 161C121.5 164.33333333333334 116.83333333333334 151.33333333333334 117.83333333333334 144C119.16666666666667 135.66666666666666 129.5 132 136.16666666666669 132.33333333333334C146.83333333333334 133 148.5 136 145.83333333333334 144Z" style="display:inline;fill:#ffffff;fill-opacity:1;stroke-width:0.892652" nodetypes="sssas" label="glint_lg"/>
</g>
<g id="g_inner_eye_11_1_to_12" inkscape:groupmode="layer" inkscape:label="g_inner_eye_11_1_to_12" style="display:none">
    <path id="iris_11_1_12" d="M256.6666666666667 156.33333333333334C255.66666666666666 193.33333333333334 233.33333333333331 218.66666666666666 204.33333333333331 218.66666666666666C175.33333333333331 218.66666666666666 153.33333333333331 190.33333333333334 152 156.33333333333334C150.66666666666666 122.66666666666667 175.33333333333331 94 204.33333333333331 94C233.33333333333331 94 257.6666666666667 122.33333333333333 256.6666666666667 156.33333333333334Z" nodetypes="sssss" label="iris" style="display:inline;fill:#2affd5;fill-opacity:1;stroke:#1d1d1d;stroke-width:4;stroke-dasharray:none;stroke-opacity:1"/>
    <path id="iris_shadow_top_11_1_12" d="M151.55555566666666 161.66666666666666C151.55555566666666 161.66666666666666 170.38214 142.30266666666668 182 139C197.1175 133.96944 214.33333333333331 135.66666666666666 229.33333333333331 141C239.66666666666666 144.33333333333334 257 163 257 163C258 143 250.06253333333333 94.46303433333334 203.72909666666666 94.62970466666667C161.395661 94.796375 150.888889 141.66666666666666 151.55555566666666 161.66666666666666Z" style="display:inline;fill:#2f4f4f;fill-opacity:1;stroke:none;stroke-opacity:0.899705" label="iris_shadow_top" nodetypes="caacsc"/>
    <path id="pupil_11_1_12" d="M209.33333333333331 183C197.66666666666666 183 187.33333333333331 169.33333333333334 187.33333333333331 154.66666666666666C187.33333333333331 141 197.66666666666666 130.33333333333334 210.33333333333331 130.33333333333334C222 130.33333333333334 231.33333333333331 143 231.33333333333331 154.66666666666666C231.33333333333331 167.33333333333334 221 183 209.33333333333331 183Z" label="pupil" nodetypes="sssas" style="display:inline;fill:#0a0a0a;stroke-width:1.15464"/>
    <path id="glint_sm_11_1_12" d="M202 171C200.66666666666666 176.33333333333334 198.66666666666666 179.33333333333334 193.66666666666666 180.66666666666666C188 182.66666666666666 185.33333333333331 176.33333333333334 188 170C191.33333333333331 163.66666666666666 190.66666666666666 165.66666666666666 196 163.66666666666666C201.33333333333331 161.66666666666666 204 165.66666666666666 202 171Z" label="glint_sm" nodetypes="zzzzz" style="display:inline;fill:#ffffff;fill-opacity:1;stroke-width:0.849148"/>
    <path id="glint_lg_11_1_12" d="M240 142C237.66666666666666 148.66666666666666 231.66666666666666 157.66666666666666 226 159C215.66666666666666 162.33333333333334 211 149.33333333333334 212 142C213.33333333333331 133.66666666666666 223.66666666666666 130 230.33333333333331 130.33333333333334C241 131 242.66666666666666 134 240 142Z" style="display:inline;fill:#ffffff;fill-opacity:1;stroke-width:0.892652" nodetypes="sssas" label="glint_lg"/>
</g>
<g id="g_inner_eye_11_1_to_21" inkscape:groupmode="layer" inkscape:label="g_inner_eye_11_1_to_21" style="display:none">
    <path id="iris_11_1_21" d="M226 177.66666666666666C225 210.66666666666666 196 233.33333333333334 159 233.33333333333334C122 233.33333333333334 94 208.33333333333334 92 177.66666666666666C90 148 122 122 159 122C196 122 227 147 226 177.66666666666666Z" nodetypes="sssss" label="iris" style="display:inline;fill:#2affd5;fill-opacity:1;stroke:#1d1d1d;stroke-width:4;stroke-dasharray:none;stroke-opacity:1"/>
    <path id="iris_shadow_top_11_1_21" d="M91.55555566666666 182.33333333333334C91.55555566666666 182.33333333333334 115.71547333333334 165.636 130.66666666666666 162.33333333333334C149.78416666666666 157.96944 171.66666666666666 159 190.66666666666666 163.66666666666666C203.66666666666666 167 225.66666666666666 183.66666666666666 225.66666666666666 183.66666666666666C226.66666666666666 165.66666666666666 222.7292 119.129701 155.72909666666666 121.29637133333333C88.72899433333333 123.46304166666667 90.888889 181.66666666666666 90.888889 181.66666666666666Z" style="display:inline;fill:#2f4f4f;fill-opacity:1;stroke:none;stroke-opacity:0.899705" label="iris_shadow_top" nodetypes="caacsc"/>
    <path id="pupil_11_1_21" d="M159.33333333333334 206.33333333333334C144.33333333333334 206.33333333333334 131.33333333333334 194 131.33333333333334 180.66666666666666C131.33333333333334 168.33333333333334 144.33333333333334 158.33333333333334 160.33333333333334 158.33333333333334C175.33333333333334 158.33333333333334 187.33333333333334 169.66666666666666 187.33333333333334 180.66666666666666C187.33333333333334 192 174.33333333333334 206.33333333333334 159.33333333333334 206.33333333333334Z" label="pupil" nodetypes="sssas" style="display:inline;fill:#0a0a0a;stroke-width:1.15464"/>
    <path id="glint_sm_11_1_21" d="M149.33333333333334 193C147.33333333333334 197.66666666666666 145.33333333333334 200 138.33333333333334 202C131.33333333333334 203.33333333333334 127.33333333333333 197.66666666666666 131.33333333333334 192C135.33333333333334 186.33333333333334 133.33333333333334 187.66666666666666 141.33333333333334 186.33333333333334C149.33333333333334 185 151.33333333333334 187.66666666666666 149.33333333333334 193Z" label="glint_sm" nodetypes="zzzzz" style="display:inline;fill:#ffffff;fill-opacity:1;stroke-width:0.849148"/>
    <path id="glint_lg_11_1_21" d="M195.33333333333334 172.66666666666666C194.33333333333334 179.33333333333334 184.33333333333334 186.33333333333334 177.33333333333334 188.33333333333334C164.33333333333334 191.66666666666666 158.33333333333334 179.33333333333334 159.33333333333334 172.66666666666666C161.33333333333334 165.66666666666666 174.33333333333334 161.33333333333334 182.33333333333334 162.33333333333334C194.33333333333334 163.66666666666666 195.33333333333334 166.66666666666666 195.33333333333334 172.66666666666666Z" style="display:inline;fill:#ffffff;fill-opacity:1;stroke-width:0.892652" nodetypes="sssas" label="glint_lg"/>
</g>
<g
     inkscape:groupmode="layer"
     id="g_inner_eye_10"
     inkscape:label="g_inner_eye_10"
     style="display:none"><path
       id="iris_10"
       style="display:inline;fill:#2affd5;fill-opacity:1;stroke:#1d1d1d;stroke-width:3.04994;stroke-dasharray:none;stroke-opacity:1"
       d="m 142.75,158 c -1,35 -20,59 -45,59 -25,0 -44,-27 -45,-59 -1,-32 20,-59 45,-59 25,0 46,27 45,59 z"
       sodipodi:nodetypes="sssss"
       inkscape:label="iris" /><path
       style="display:inline;fill:#2f4f4f;fill-opacity:1;stroke:none;stroke-width:0.762485;stroke-opacity:0.899705"
       d="m 51.75,164 c 0,0 16,-19 26,-22 13,-5 28,-3 41,2 9,3 24,21 24,21 1,-19 -9,-65 -45,-65 -26,-1 -47,34 -46,64 z"
       id="iris_shadow_top_10"
       sodipodi:nodetypes="caacsc"
       inkscape:label="iris_shadow_top" /><path
       id="pupil_10"
       style="display:inline;fill:#0a0a0a;stroke-width:0.880395"
       d="m 92.75,183 c -10,0 -19,-13 -19,-27 0,-13 9,-23 20,-23 10,0 18,12 18,23 0,12 -9,27 -19,27 z"
       inkscape:label="pupil"
       sodipodi:nodetypes="sssas" /><path
       id="glint_sm_10"
       style="display:inline;fill:#ffffff;fill-opacity:1;stroke-width:0.647462"
       d="m 86.75,173 c -1,5 -3,8 -7,9 -5,2 -7,-4 -5,-10 3,-6 3,-4 7,-6 4,-2 7,2 5,7 z"
       sodipodi:nodetypes="zzzzz"
       inkscape:label="glint_sm" /><path
       id="glint_lg_10"
       style="display:inline;fill:#ffffff;fill-opacity:1;stroke-width:0.680634"
       d="m 120.75,142 c -3,6 -7,15 -12,16 -9,3 -13,-9 -12,-16 1,-8 10,-11 16,-11 10,0 12,3 8,11 z"
       sodipodi:nodetypes="sssas"
       inkscape:label="glint_lg" /></g><g
     inkscape:groupmode="layer"
     id="g_inner_eye_12"
     inkscape:label="g_inner_eye_12"
     style="display:none"><path
       id="iris_12"
       style="display:inline;fill:#2affd5;fill-opacity:1;stroke:#1d1d1d;stroke-width:3.04994;stroke-dasharray:none;stroke-opacity:1"
       d="m 272,155 c -1,35 -20,59 -45,59 -25,0 -44,-27 -45,-59 -1,-32 20,-59 45,-59 25,0 46,27 45,59 z"
       sodipodi:nodetypes="sssss"
       inkscape:label="iris" /><path
       style="display:inline;fill:#2f4f4f;fill-opacity:1;stroke:none;stroke-width:0.762485;stroke-opacity:0.899705"
       d="m 181,161 c 0,0 16,-19 26,-22 13,-5 28,-3 41,2 9,3 24,21 24,21 1,-19 -9,-64 -45,-65 -30,-1 -47,34 -46,64 z"
       id="iris_shadow_top_12"
       sodipodi:nodetypes="caacsc"
       inkscape:label="iris_shadow_top" /><path
       id="pupil_12"
       style="display:inline;fill:#0a0a0a;stroke-width:0.880395"
       d="m 234,180 c -10,0 -19,-13 -19,-27 0,-13 9,-23 20,-23 10,0 18,12 18,23 0,12 -9,27 -19,27 z"
       inkscape:label="pupil"
       sodipodi:nodetypes="sssas" /><path
       id="glint_sm_12"
       style="display:inline;fill:#ffffff;fill-opacity:1;stroke-width:0.647462"
       d="m 228,170 c -1,5 -3,8 -7,9 -5,2 -7,-4 -5,-10 3,-6 3,-4 7,-6 4,-2 7,2 5,7 z"
       sodipodi:nodetypes="zzzzz"
       inkscape:label="glint_sm" /><path
       id="glint_lg_12"
       style="display:inline;fill:#ffffff;fill-opacity:1;stroke-width:0.680634"
       d="m 262,139 c -3,6 -7,15 -12,16 -9,3 -13,-9 -12,-16 1,-8 10,-11 16,-11 10,0 12,3 8,11 z"
       sodipodi:nodetypes="sssas"
       inkscape:label="glint_lg" /></g><g
     inkscape:groupmode="layer"
     id="g_inner_eye_01"
     inkscape:label="g_inner_eye_01"
     style="display:none"><path
       id="iris_01"
       style="display:inline;fill:#2affd5;fill-opacity:1;stroke:#1d1d1d;stroke-width:3.74779;stroke-dasharray:none;stroke-opacity:1"
       d="m 226,137 c -1,36 -30,60 -67,60 -37,0 -65,-27 -67,-60 -2,-32 30,-60 67,-60 37,0 68,27 67,60 z"
       sodipodi:nodetypes="sssss"
       inkscape:label="iris" /><path
       style="display:inline;fill:#2f4f4f;fill-opacity:1;stroke:none;stroke-opacity:0.899705"
       d="m 93,149 c 0,0 24,-24 40,-29 19,-6 41,-5 59,2 14,5 34,28 34,28 1,-22 -3,-74 -70,-75 -74,-1 -64,74 -64,74 z"
       id="iris_shadow_top_01"
       sodipodi:nodetypes="caacsc"
       inkscape:label="iris_shadow_top" /><path
       id="pupil_01"
       style="display:inline;fill:#0a0a0a;stroke-width:1.0208"
       d="m 159,142 c -15,0 -28,-12 -28,-24 0,-12 13,-21 29,-21 15,0 27,11 27,21 0,11 -13,24 -28,24 z"
       inkscape:label="pupil"
       sodipodi:nodetypes="sssas" /><path
       id="glint_sm_01"
       style="display:inline;fill:#ffffff;fill-opacity:1;stroke-width:0.849148"
       d="m 144,135 c -2,6 -4,9 -11,11 -7,2 -9,-2 -5,-9 4,-7 0,-6 8,-8 8,-2 10,0 8,6 z"
       sodipodi:nodetypes="zzzzz"
       inkscape:label="glint_sm" /><path
       id="glint_lg_01"
       style="display:inline;fill:#ffffff;fill-opacity:1;stroke-width:0.574776"
       d="m 190,100 c -1,6 -4,7 -8,8 -8,3 -14,-4 -11,-9 4,-6 6,-7 10,-7 4,0 9,2 9,7 z"
       sodipodi:nodetypes="sssas"
       inkscape:label="glint_lg" /></g><g
     inkscape:groupmode="layer"
     id="g_inner_eye_21"
     inkscape:label="g_inner_eye_21"
     style="display:inline"><path
       id="iris_21"
       style="display:inline;fill:#2affd5;fill-opacity:1;stroke:#1d1d1d;stroke-width:3.37785;stroke-dasharray:none;stroke-opacity:1"
       d="m 226,187 c -1,29 -30,49 -67,49 -37,0 -65,-22 -67,-49 -2,-26 30,-49 67,-49 37,0 68,22 67,49 z"
       sodipodi:nodetypes="sssss"
       inkscape:label="iris" /><path
       style="display:inline;fill:#2f4f4f;fill-opacity:1;stroke:none;stroke-width:0.861906;stroke-opacity:0.899705"
       d="m 91,192 c 0,0 24,-15 39,-18 19,-4 41,-3 60,1 13,3 35,18 35,18 1,-16 -3,-58 -70,-56 -67,2 -65,54 -65,54 z"
       id="iris_shadow_top_21"
       sodipodi:nodetypes="caacsc"
       inkscape:label="iris_shadow_top" /><path
       id="pupil_21"
       style="display:inline;fill:#0a0a0a;stroke-width:0.986447"
       d="m 159,215 c -15,0 -28,-11 -28,-23 0,-11 13,-20 29,-20 15,0 27,10 27,20 0,10 -13,23 -28,23 z"
       inkscape:label="pupil"
       sodipodi:nodetypes="sssas" /><path
       id="glint_sm_21"
       style="display:inline;fill:#ffffff;fill-opacity:1;stroke-width:0.719032"
       d="m 149,203 c -2,4 -4,6 -11,8 -7,1 -11,-4 -7,-9 4,-5 2,-4 10,-5 8,-1 10,1 8,6 z"
       sodipodi:nodetypes="zzzzz"
       inkscape:label="glint_sm" /><path
       id="glint_lg_21"
       style="display:inline;fill:#ffffff;fill-opacity:1;stroke-width:0.75587"
       d="m 195,185 c -1,6 -11,12 -18,14 -13,3 -19,-8 -18,-14 2,-6 15,-10 23,-9 12,1 13,4 13,9 z"
       sodipodi:nodetypes="sssas"
       inkscape:label="glint_lg" /></g><g
     inkscape:groupmode="layer"
     id="g_upper_lid_neutral"
     inkscape:label="g_upper_lid_neutral"
     style="display:none"><path
       id="upper_lid_shadow_neutral"
       style="display:inline;fill:#1d1c4f;fill-opacity:1;stroke:none;stroke-opacity:1"
       d="m 163,96 c -32.31348,-1.271425 -64,6 -94,24 -19,11 -38,27 -38,27 v 0 c -2,1 -11,27 45,64 0,0 -14.599063,-25.22528 -19,-39 -1.851218,-5.79422 -6,-12 -3,-18 9,-20 34.070815,-28.84978 55,-34 39.48052,-9.7153 83.138,-4.31949 121.66667,8.66667 C 247.02073,134.17884 274,157 274,157 274,157 260.68539,133.34187 250,125.66667 225.11468,107.7918 193.61599,97.204634 163,96 Z"
       sodipodi:nodetypes="accscaaaacaa"
       inkscape:label="upper_lid_shadow" /><path
       style="display:inline;fill:#73369a;fill-opacity:1;stroke:#000000;stroke-width:1;stroke-dasharray:none;stroke-opacity:1"
       d="M 65,102.33333 C 91.587468,84.596356 126.04639,78.321388 158,79 c 33.60165,0.713612 71.71335,6.15195 96.66667,28.66667 C 267.8723,119.58176 275,157 275,157 c 0,0 -32,-32 -52,-42 -20,-10 -44,-16 -66,-17 -26,-1 -51,6 -75,16 -19,8 -51,34 -51,34 0,0 18.212726,-35.13469 34,-45.66667 z"
       id="upper_lid_neutral"
       sodipodi:nodetypes="aaacaaaca"
       inkscape:label="upper_lid" /><path
       style="display:inline;fill:#6b8e23;fill-opacity:1;stroke:#000000;stroke-opacity:1"
       d="m 54,111 c 0,0 31,-30 52,-35 43,-11 67,-8 106,5 18,6 49,32 49,32 0,0 -49,-24 -75,-29 -23,-4 -47,-6 -69,-1 -22,5 -37,19 -62,29 z"
       id="upper_lid_top_11"
       sodipodi:nodetypes="csscaac" /></g><g
     inkscape:groupmode="layer"
     id="g_lower_lid_neutral"
     inkscape:label="g_lower_lid_neutral"
     style="display:none"><path
       style="display:inline;fill:#6b8e23;fill-opacity:1;stroke:#000000;stroke-opacity:1"
       d="m 70.666667,210.66667 c 0,0 22.45175,28.88499 89.999993,28.33333 67.54824,-0.55166 98.66667,-33.66667 98.66667,-33.66667 0,0 -31.65574,5.67246 -47.66666,6 -23.74606,0.48578 -47.24918,-5.90187 -71,-6 -23.40076,-0.0967 -36,-2.66666 -70.000003,5.33334 z"
       id="lower_lid_neutral"
       sodipodi:nodetypes="czcaac"
       inkscape:label="lower_lid" /></g></svg>
