<?xml version="1.0" encoding="UTF-8" standalone="no"?>
<!-- Created with Inkscape (http://www.inkscape.org/) -->

<svg
   width="320"
   height="240"
   viewBox="0 0 320 240"
   version="1.1"
   id="svg1"
   xml:space="preserve"
   inkscape:version="1.4.2 (ebf0e940, 2025-05-08)"
   sodipodi:docname="eyestack-right.svg"
   inkscape:export-filename="eyebg-l-neutral-11.png"
   inkscape:export-xdpi="96"
   inkscape:export-ydpi="96"
   xmlns:inkscape="http://www.inkscape.org/namespaces/inkscape"
   xmlns:sodipodi="http://sodipodi.sourceforge.net/DTD/sodipodi-0.dtd"
   xmlns:xlink="http://www.w3.org/1999/xlink"
   xmlns="http://www.w3.org/2000/svg"
   xmlns:svg="http://www.w3.org/2000/svg"><sodipodi:namedview
     id="namedview1"
     pagecolor="#505050"
     bordercolor="#eeeeee"
     borderopacity="1"
     inkscape:showpageshadow="0"
     inkscape:pageopacity="0"
     inkscape:pagecheckerboard="true"
     inkscape:deskcolor="#505050"
     inkscape:document-units="px"
     inkscape:zoom="3.65"
     inkscape:cx="159.86301"
     inkscape:cy="141.91781"
     inkscape:window-width="2176"
     inkscape:window-height="1053"
     inkscape:window-x="150"
     inkscape:window-y="25"
     inkscape:window-maximized="0"
     inkscape:current-layer="layer2"
     showgrid="false" /><defs
     id="defs1" /><g
     inkscape:groupmode="layer"
     id="layer15"
     inkscape:label="base_color"
     style="display:none"><rect
       style="fill:#556b2f;fill-opacity:1;stroke:#808080;stroke-opacity:0.899705"
       id="rect12"
       width="320"
       height="240"
       x="0.85333252"
       y="0.21333356" /></g><g
     inkscape:groupmode="layer"
     id="g7"
     inkscape:label="face_background_10"
     style="display:none"><path
       style="fill:#6b8e23;fill-opacity:1;stroke:#000000;stroke-opacity:1"
       d="m 248,100 c 0,0 -23,-17 -46,-21 -36,-6 -74,-6 -110,9 -16,7 -27,16 -27,16 0,0 38,-17 58,-21 23,-4 46,-4 69,-1 13,2 31,8 56,18 z"
       id="upper_lid_top_10"
       sodipodi:nodetypes="csscaac"
       inkscape:label="upper_lid_top" /><path
       style="display:inline;fill:#0d0b0a;fill-opacity:1;stroke:#000000;stroke-opacity:1"
       d="m 314,61 c -50,-38 -95,-46 -146,-49 -32,-2 -65,3 -96,12 -19,5 -37,12 -52,25 -25,18 -6,17 6,14 56,-16 60,-23 92,-28 41,-5 84,-9 124,2 24,6 72,24 72,24 z"
       id="eyebrow_10"
       sodipodi:nodetypes="csassasc"
       inkscape:label="eyebrow" /></g><g
     inkscape:groupmode="layer"
     id="layer3"
     inkscape:label="face_background_11"
     style="display:none"><path
       style="fill:#6b8e23;fill-opacity:1;stroke:#000000;stroke-opacity:1"
       d="m 248,100 c 0,0 -23,-17 -46,-21 -36,-6 -74,-6 -110,9 -16,7 -27,16 -27,16 0,0 38,-17 58,-21 23,-4 46,-4 69,-1 13,2 31,8 56,18 z"
       id="upper_lid_top_11"
       sodipodi:nodetypes="csscaac" /><path
       style="display:inline;fill:#0d0b0a;fill-opacity:1;stroke:#000000;stroke-opacity:1"
       d="M 314,61 C 264,23 219,15 168,12 136,10 103,15 72,24 53,29 35,36 20,49 -5,67 14,66 26,63 82,47 86,40 118,35 c 41,-5 84,-9 124,2 24,6 72,24 72,24 z"
       id="eyebrow_11"
       sodipodi:nodetypes="csassasc"
       inkscape:label="eyebrow" /></g><g
     inkscape:groupmode="layer"
     id="layer9"
     inkscape:label="inner_eye_11"
     style="display:none"><path
       id="sclera_11"
       style="display:none;fill:#f4eed7;stroke:#1d1d1d;stroke-width:1.05481"
       d="m 42,166 c 0,34 52,60 111,60 60,0 110,-28 110,-63 0,-34 -50,-61 -110,-61 -59,0 -111,29 -111,64 z"
       inkscape:label="sclera"
       sodipodi:nodetypes="ccscc" /><path
       id="iris_11"
       style="display:none;fill:#2affd5;fill-opacity:1;stroke:#1d1d1d;stroke-width:4;stroke-dasharray:none;stroke-opacity:1"
       d="m 82,159 c 1,41 30,69 67,69 37,0 65,-31 67,-69 2,-37 -30,-69 -67,-69 -37,0 -68,31 -67,69 z"
       sodipodi:nodetypes="sssss" /><path
       style="display:none;fill:#2f4f4f;fill-opacity:1;stroke:none;stroke-opacity:0.899705"
       d="m 214,165 c 0,0 -23,-22 -38,-26 -19,-6 -41,-4 -60,2 -13,4 -35,24 -35,24 -1,-22 11,-77 70,-75 75,3 63,75 63,75 z"
       id="iris_shadow_top_11"
       sodipodi:nodetypes="caacsc"
       inkscape:label="iris_shadow_top" /><path
       id="pupil_11"
       style="display:none;fill:#0a0a0a;stroke-width:1.15464"
       d="m 148,189 c 15,0 28,-15 28,-31 0,-15 -13,-27 -29,-27 -15,0 -27,14 -27,27 0,14 13,31 28,31 z"
       inkscape:label="pupil"
       sodipodi:nodetypes="sssas" /><path
       id="glint_sm_11"
       style="display:none;fill:#ffffff;fill-opacity:1;stroke-width:0.849148"
       d="m 135.95324,169.71233 c -2,6 -4,9 -11,11 -7,2 -11,-5 -7,-12 4,-7 2,-5 10,-7 8,-2 10,2 8,8 z"
       sodipodi:nodetypes="zzzzz"
       inkscape:label="glint_sm" /><path
       id="glint_lg_11"
       style="display:none;fill:#ffffff;fill-opacity:1;stroke-width:0.892652"
       d="m 181.95324,144.71233 c -1,8 -11,17 -18,19 -13,4 -19,-11 -18,-19 2,-9 15,-14 23,-13 12,2 13,5 13,13 z"
       sodipodi:nodetypes="sssas"
       inkscape:label="glint_lg" /></g><g
     inkscape:groupmode="layer"
     id="g6"
     inkscape:label="inner_eye_10"
     style="display:none"><path
       id="sclera_10"
       style="display:inline;fill:#f4eed7;stroke:#1d1d1d;stroke-width:1.05481"
       d="m 42,166 c 0,34 52,60 111,60 60,0 110,-28 110,-63 0,-34 -50,-61 -110,-61 -59,0 -111,29 -111,64 z"
       inkscape:label="sclera"
       sodipodi:nodetypes="ccscc" /><path
       id="iris_10"
       style="display:inline;fill:#2affd5;fill-opacity:1;stroke:#1d1d1d;stroke-width:3.04994;stroke-dasharray:none;stroke-opacity:1"
       d="m 167,158 c -1,35 -20,59 -45,59 -25,0 -44,-27 -45,-59 -1,-32 20,-59 45,-59 25,0 46,27 45,59 z"
       sodipodi:nodetypes="sssss"
       inkscape:label="iris" /><path
       style="display:inline;fill:#2f4f4f;fill-opacity:1;stroke:none;stroke-width:0.762485;stroke-opacity:0.899705"
       d="m 76,164 c 0,0 16,-19 26,-22 13,-5 28,-3 41,2 9,3 24,21 24,21 1,-19 -5,-63 -45,-61 -42,2 -47,30 -46,60 z"
       id="iris_shadow_top_10"
       sodipodi:nodetypes="caacsc"
       inkscape:label="iris_shadow_top" /><path
       id="pupil_10"
       style="display:inline;fill:#0a0a0a;stroke-width:0.880395"
       d="m 117,183 c -10,0 -19,-13 -19,-27 0,-13 9,-23 20,-23 10,0 18,12 18,23 0,12 -9,27 -19,27 z"
       inkscape:label="pupil"
       sodipodi:nodetypes="sssas" /><path
       id="glint_sm_10"
       style="display:inline;fill:#ffffff;fill-opacity:1;stroke-width:0.647462"
       d="m 111,173 c -1,5 -3,8 -7,9 -5,2 -7,-4 -5,-10 3,-6 3,-4 7,-6 4,-2 7,2 5,7 z"
       sodipodi:nodetypes="zzzzz"
       inkscape:label="glint_sm" /><path
       id="glint_lg_10"
       style="display:inline;fill:#ffffff;fill-opacity:1;stroke-width:0.680634"
       d="m 145,142 c -3,6 -7,15 -12,16 -9,3 -13,-9 -12,-16 1,-8 10,-11 16,-11 10,0 12,3 8,11 z"
       sodipodi:nodetypes="sssas"
       inkscape:label="glint_lg" /></g><g
     inkscape:groupmode="layer"
     id="layer4"
     inkscape:label="eyeball_overlay_11"
     style="display:none"><path
       style="fill:#6b8e23;fill-opacity:1;stroke:#000000;stroke-opacity:1"
       d="m 227,214 c 0,0 -52,19 -79,18 -26,0 -76,-20 -76,-20 11,0 23,5 36,0 14,-4 32,-8 55,-6 23,2 30,0 64,8 z"
       id="lower_lid_11"
       sodipodi:nodetypes="caczzc"
       inkscape:label="lower_lid" /><path
       style="display:inline;fill:#73369a;fill-opacity:1;stroke:#000000;stroke-width:1;stroke-dasharray:none;stroke-opacity:1"
       d="m 284,148 c 0,0 -31,-32 -51,-42 -28,-13 -61,-21 -93,-17 -28,4 -54,19 -75,36 -11,9 -25,33 -25,33 0,0 33,-32 53,-43 17,-8 34,-16 53,-17 28,-2 56,7 83,18 20,8 55,32 55,32 z"
       id="upper_lid_11"
       sodipodi:nodetypes="caaacaaac"
       inkscape:label="upper_lid" /><path
       id="upper_lid_shadow_11"
       style="display:inline;fill:#1d1c4f;fill-opacity:1;stroke:none;stroke-opacity:1"
       d="m 152,96 c 32,-2 64,6 94,24 19,11 38,27 38,27 v 0 c 2,1 7,7 -49,61 0,0 18,-23 23,-36 2,-6 6,-12 3,-18 -9,-20 -34,-29 -55,-34 -40,-9 -82,1 -121,13 -16,5 -44,25 -44,25 0,0 18,-21 29,-29 25,-16 53,-31 82,-33 z"
       sodipodi:nodetypes="accscaaaacaa"
       inkscape:label="upper_lid_shadow" /></g><g
     inkscape:groupmode="layer"
     id="g3"
     inkscape:label="eyeball_overlay_10"
     style="display:none"><path
       style="fill:#6b8e23;fill-opacity:1;stroke:#000000;stroke-opacity:1"
       d="m 227,214 c 0,0 -52,19 -79,18 -26,0 -76,-20 -76,-20 11,0 23,5 36,0 14,-4 32,-8 55,-6 23,2 30,0 64,8 z"
       id="lower_lid_10"
       sodipodi:nodetypes="caczzc"
       inkscape:label="lower_lid" /><path
       style="display:inline;fill:#73369a;fill-opacity:1;stroke:#000000;stroke-width:1;stroke-dasharray:none;stroke-opacity:1"
       d="m 284,148 c 0,0 -31,-32 -51,-42 -28,-13 -61,-21 -93,-17 -28,4 -54,19 -75,36 -11,9 -25,33 -25,33 0,0 33,-32 53,-43 17,-8 34,-16 53,-17 28,-2 56,7 83,18 20,8 55,32 55,32 z"
       id="upper_lid_10"
       sodipodi:nodetypes="caaacaaac"
       inkscape:label="upper_lid" /><path
       id="upper_lid_shadow_10"
       style="display:inline;fill:#1d1c4f;fill-opacity:1;stroke:none;stroke-opacity:1"
       d="m 152,96 c 32,-2 64,6 94,24 19,11 38,27 38,27 v 0 c 2,1 7,7 -49,61 0,0 18,-23 23,-36 2,-6 6,-12 3,-18 -9,-20 -34,-29 -55,-34 -40,-9 -82,1 -121,13 -16,5 -44,25 -44,25 0,0 18,-21 29,-29 25,-16 53,-31 82,-33 z"
       sodipodi:nodetypes="accscaaaacaa"
       inkscape:label="upper_lid_shadow" /></g><g
     inkscape:label="raster"
     inkscape:groupmode="layer"
     id="layer1"
     style="display:none"><image
       width="320"
       height="240"
       preserveAspectRatio="none"
       xlink:href="../new-expressions/vector-eyestack-l.png"
       id="image1"
       x="0"
       y="0"
       style="display:inline" /></g><g
     inkscape:groupmode="layer"
     id="layer2"
     inkscape:label="testo"><ellipse
       style="fill:#ecead6;fill-opacity:1;stroke:#1d1d1d"
       id="ellipse01"
       cx="203.79114"
       cy="14.894423"
       rx="80"
       ry="40"
       transform="rotate(30)" /></g></svg>
