<?xml version="1.0" encoding="UTF-8" standalone="no"?>
<!-- Created with Inkscape (http://www.inkscape.org/) -->

<svg
   width="320"
   height="240"
   viewBox="0 0 320 240"
   version="1.1"
   id="svg1"
   xml:space="preserve"
   inkscape:version="1.4.2 (ebf0e940, 2025-05-08)"
   sodipodi:docname="eyestack-left.svg"
   inkscape:export-filename="vector-eyestack-l.png"
   inkscape:export-xdpi="96"
   inkscape:export-ydpi="96"
   xmlns:inkscape="http://www.inkscape.org/namespaces/inkscape"
   xmlns:sodipodi="http://sodipodi.sourceforge.net/DTD/sodipodi-0.dtd"
   xmlns:xlink="http://www.w3.org/1999/xlink"
   xmlns="http://www.w3.org/2000/svg"
   xmlns:svg="http://www.w3.org/2000/svg"><sodipodi:namedview
     id="namedview1"
     pagecolor="#505050"
     bordercolor="#eeeeee"
     borderopacity="1"
     inkscape:showpageshadow="0"
     inkscape:pageopacity="0"
     inkscape:pagecheckerboard="true"
     inkscape:deskcolor="#505050"
     inkscape:document-units="px"
     inkscape:zoom="4.621875"
     inkscape:cx="159.89182"
     inkscape:cy="154.8073"
     inkscape:window-width="2176"
     inkscape:window-height="1114"
     inkscape:window-x="114"
     inkscape:window-y="155"
     inkscape:window-maximized="0"
     inkscape:current-layer="layer9"
     showgrid="false" /><defs
     id="defs1" /><g
     inkscape:groupmode="layer"
     id="layer15"
     inkscape:label="base_color"
     style="display:inline"><rect
       style="fill:#556b2f;fill-opacity:1;stroke:#808080;stroke-opacity:0.899705"
       id="rect12"
       width="320"
       height="240"
       x="0.85333323"
       y="0.21333356" /></g><g
     inkscape:groupmode="layer"
     id="layer3"
     inkscape:label="upper_lid_top"
     style="display:inline"><path
       style="fill:#6b8e23;fill-opacity:1;stroke:#000000;stroke-opacity:1"
       d="m 74,100 c 0,0 23,-17 46,-21 36,-6 74,-6 110,9 16,7 27,16 27,16 0,0 -38,-17 -58,-21 -23,-4 -46,-4 -69,-1 -13,2 -31,8 -56,18 z"
       id="upper_lid_top"
       sodipodi:nodetypes="csscaac" /></g><g
     inkscape:groupmode="layer"
     id="layer2"
     inkscape:label="brow"
     style="display:inline"><path
       style="display:inline;fill:#0d0b0a;fill-opacity:1;stroke:#000000;stroke-opacity:1"
       d="m 8,61 c 50,-38 95,-46 146,-49 32,-2 65,3 96,12 19,5 37,12 52,25 25,18 6,17 -6,14 C 240,47 236,40 204,35 163,30 120,26 80,37 56,43 8,61 8,61 Z"
       id="eyebrow"
       sodipodi:nodetypes="csassasc"
       sodipodi:insensitive="true" /></g><g
     inkscape:groupmode="layer"
     id="layer9"
     inkscape:label="inner_eye"
     style="display:inline"><path
       id="sclera"
       style="display:inline;fill:#f4eed7;stroke:#1d1d1d;stroke-width:1.05481"
       d="M 280,166 C 280,200 228,226 169,226 109,226 59,198 59,163 59,129 109,102 169,102 c 59,0 111,29 111,64 z"
       inkscape:label="sclera"
       sodipodi:nodetypes="ccscc" /><path
       id="iris"
       style="display:inline;fill:#2affd5;fill-opacity:1;stroke:#1d1d1d;stroke-width:4;stroke-dasharray:none;stroke-opacity:1"
       d="m 240,159 c -1,41 -30,69 -67,69 -37,0 -65,-31 -67,-69 -2,-37 30,-69 67,-69 37,0 68,31 67,69 z"
       sodipodi:nodetypes="sssss" /><path
       style="display:inline;fill:#2f4f4f;fill-opacity:1;stroke:none;stroke-opacity:0.899705"
       d="m 108,165 c 0,0 23,-22 38,-26 19,-6 41,-4 60,2 13,4 35,24 35,24 1,-22 -8,-73 -67,-71 -75,3 -66,71 -66,71 z"
       id="iris_shadow_top"
       sodipodi:nodetypes="caacsc"
       inkscape:label="iris_shadow_top" /><path
       id="pupil"
       style="display:inline;fill:#0a0a0a;stroke-width:1.15464"
       d="m 174,189 c -15,0 -28,-15 -28,-31 0,-15 13,-27 29,-27 15,0 27,14 27,27 0,14 -13,31 -28,31 z"
       inkscape:label="pupil"
       sodipodi:nodetypes="sssas" /><path
       id="glint_sm"
       style="display:inline;fill:#ffffff;fill-opacity:1;stroke-width:0.849148"
       d="m 164,173 c -2,6 -4,9 -11,11 -7,2 -11,-5 -7,-12 4,-7 2,-5 10,-7 8,-2 10,2 8,8 z"
       sodipodi:nodetypes="zzzzz"
       inkscape:label="glint_sm" /><path
       id="glint_lg"
       style="display:inline;fill:#ffffff;fill-opacity:1;stroke-width:0.892652"
       d="m 210,148 c -1,8 -11,17 -18,19 -13,4 -19,-11 -18,-19 2,-9 15,-14 23,-13 12.3822,2.0637 13,4.74501 13,13 z"
       sodipodi:nodetypes="sssas"
       inkscape:label="glint_lg" /></g><g
     inkscape:groupmode="layer"
     id="layer4"
     inkscape:label="eyeball_overlay"
     style="display:inline"><path
       style="fill:#6b8e23;fill-opacity:1;stroke:#000000;stroke-opacity:1"
       d="m 108,220 c 0,0 43,12 66,12 22,0 65,-10 65,-10 -11,0 -20.4478,0.7758 -34.02908,-3.54361 -13.58128,-4.31941 -31.13594,-2.48473 -54.29817,-0.78363 C 127.51052,219.37386 147,222 108,220 Z"
       id="lower_lid"
       sodipodi:nodetypes="caczzc"
       inkscape:label="lower_lid" /><path
       style="display:inline;fill:#73369a;fill-opacity:1;stroke:#000000;stroke-width:1;stroke-dasharray:none;stroke-opacity:1"
       d="m 38,148 c 0,0 31,-32 51,-42 28,-13 61,-21 93,-17 28,4 54,19 75,36 11,9 25,33 25,33 0,0 -33,-32 -53,-43 C 212,107 195,99 176,98 148,96 120,105 93,116 73,124 38,148 38,148 Z"
       id="upper_lid"
       sodipodi:nodetypes="caaacaaac"
       inkscape:label="upper_lid" /><path
       id="upper_lid_shadow"
       style="display:inline;fill:#1d1c4f;fill-opacity:1;stroke:none;stroke-opacity:1"
       d="m 170,96 c -32,-2 -64,6 -94,24 -19,11 -38,27 -38,27 v 0 c -2,1 -7,7 49,61 0,0 -18,-23 -23,-36 -2,-6 -6,-12 -3,-18 9,-20 34,-29 55,-34 40,-9 82,1 121,13 16,5 44,25 44,25 0,0 -18,-21 -29,-29 C 227,113 199,98 170,96 Z"
       sodipodi:nodetypes="accscaaaacaa"
       inkscape:label="upper_lid_shadow" /></g><g
     inkscape:label="Layer 1"
     inkscape:groupmode="layer"
     id="layer1"
     style="display:none"><image
       width="320"
       height="240"
       preserveAspectRatio="none"
       xlink:href="../new-expressions/vector-eyestack-l.png"
       id="image1"
       x="0"
       y="0"
       style="display:inline" /></g></svg>
