<?xml version="1.0" encoding="UTF-8" standalone="no"?>
<!-- Created with Inkscape (http://www.inkscape.org/) -->

<svg
   width="320"
   height="240"
   viewBox="0 0 320 240"
   version="1.1"
   id="svg1"
   xml:space="preserve"
   inkscape:version="1.4.2 (ebf0e940, 2025-05-08)"
   inkscape:export-filename="eyestack-main-neutral.png"
   inkscape:export-xdpi="96"
   inkscape:export-ydpi="96"
   sodipodi:docname="eyestack-main.svg"
   xmlns:inkscape="http://www.inkscape.org/namespaces/inkscape"
   xmlns:sodipodi="http://sodipodi.sourceforge.net/DTD/sodipodi-0.dtd"
   xmlns="http://www.w3.org/2000/svg"
   xmlns:svg="http://www.w3.org/2000/svg"><sodipodi:namedview
     id="namedview1"
     pagecolor="#505050"
     bordercolor="#eeeeee"
     borderopacity="1"
     inkscape:showpageshadow="0"
     inkscape:pageopacity="0"
     inkscape:pagecheckerboard="true"
     inkscape:deskcolor="#505050"
     inkscape:document-units="px"
     inkscape:zoom="3"
     inkscape:cx="160.16667"
     inkscape:cy="119.66667"
     inkscape:window-width="2352"
     inkscape:window-height="1147"
     inkscape:window-x="0"
     inkscape:window-y="25"
     inkscape:window-maximized="0"
     inkscape:current-layer="g_eyeball_bg"
     showgrid="false"
     showguides="true"><sodipodi:guide
       position="160,155.34247"
       orientation="1,0"
       id="guide1"
       inkscape:locked="false" /><sodipodi:guide
       position="93.424658,120"
       orientation="0,-1"
       id="guide2"
       inkscape:locked="false" /><sodipodi:guide
       position="130.66667,84"
       orientation="0,-1"
       id="guide3"
       inkscape:locked="false" /></sodipodi:namedview><defs
     id="defs1" />
<g
     inkscape:groupmode="layer"
     id="g_base_color"
     inkscape:label="g_neutral_bg_color"
     style="display:inline"><rect
       style="fill:#556b2f;fill-opacity:1;stroke:#808080;stroke-opacity:0.899705"
       id="rect12"
       width="320"
       height="240"
       x="0"
       y="0"
       inkscape:label="color_rect1" /></g><g id="g1" inkscape:groupmode="layer" inkscape:label="g1"/>
<g id="g_symmetric_testo" inkscape:groupmode="layer" inkscape:label="g_symmetric_testo"/>
<g id="g_face_background_11" inkscape:groupmode="layer" inkscape:label="g_face_background_11">
    <path id="eyebrow" d="M312 61C262 23 217 15 166 12C134 10 101 15 70 24C51 29 33 36 18 49C-7 67 12 66 24 63C80 47 84 40 116 35C157 30 200 26 240 37C264 43 312 61 312 61Z" style="display:inline;fill:#0d0b0a;fill-opacity:1;stroke:#000000;stroke-opacity:1" nodetypes="csassasc" label="eyebrow"/>
</g>
<g
     inkscape:groupmode="layer"
     id="g_eyeball_bg"
     inkscape:label="g_eyeball_bg"
     style="display:inline"><ellipse
       style="display:inline;fill:#fefbe0;fill-opacity:1;stroke:#1d1d1d;stroke-width:0.982661"
       id="sclera"
       cx="162.85362"
       cy="156.18951"
       rx="110"
       ry="82"
       inkscape:label="sclera" /></g><g
     inkscape:groupmode="layer"
     id="g_inner_eye_11"
     inkscape:label="g_inner_eye_11"
     style="display:none"><path
       id="iris_11"
       style="display:inline;fill:#2affd5;fill-opacity:1;stroke:#1d1d1d;stroke-width:4;stroke-dasharray:none;stroke-opacity:1"
       d="m 226,159 c -1,41 -30,69 -67,69 -37,0 -65,-31 -67,-69 -2,-37 30,-69 67,-69 37,0 68,31 67,69 z"
       sodipodi:nodetypes="sssss"
       inkscape:label="iris" /><path
       style="display:inline;fill:#2f4f4f;fill-opacity:1;stroke:none;stroke-opacity:0.899705"
       d="m 94,165 c 0,0 23,-22 38,-26 19,-6 41,-4 60,2 13,4 35,24 35,24 1,-22 -2.8124,-77.610897 -69.81271,-75.110886 C 90.186983,92.389125 94,165 94,165 Z"
       id="iris_shadow_top_11"
       sodipodi:nodetypes="caacsc"
       inkscape:label="iris_shadow_top" /><path
       id="pupil_11"
       style="display:inline;fill:#0a0a0a;stroke-width:1.15464"
       d="m 160,189 c -15,0 -28,-15 -28,-31 0,-15 13,-27 29,-27 15,0 27,14 27,27 0,14 -13,31 -28,31 z"
       inkscape:label="pupil"
       sodipodi:nodetypes="sssas" /><path
       id="glint_sm_11"
       style="display:inline;fill:#ffffff;fill-opacity:1;stroke-width:0.849148"
       d="m 150,173 c -2,6 -4,9 -11,11 -7,2 -11,-5 -7,-12 4,-7 2,-5 10,-7 8,-2 10,2 8,8 z"
       sodipodi:nodetypes="zzzzz"
       inkscape:label="glint_sm" /><path
       id="glint_lg_11"
       style="display:inline;fill:#ffffff;fill-opacity:1;stroke-width:0.892652"
       d="m 196,148 c -1,8 -11,17 -18,19 -13,4 -19,-11 -18,-19 2,-9 15,-14 23,-13 12,2 13,5 13,13 z"
       sodipodi:nodetypes="sssas"
       inkscape:label="glint_lg" /></g>

<g id="g_inner_eye_11_0_to_10" inkscape:groupmode="layer" inkscape:label="g_inner_eye_11_0_to_10" style="display:none">
    <path id="iris_11_0_10" d="M198.25 158.66666666666666C197.25 197.66666666666666 171.58333333333334 224.33333333333334 138.58333333333334 224.33333333333334C105.58333333333334 224.33333333333334 80.58333333333333 194.66666666666666 78.91666666666667 158.66666666666666C77.25 123.33333333333333 105.58333333333334 93 138.58333333333334 93C171.58333333333334 93 199.25 122.66666666666667 198.25 158.66666666666666Z" label="iris" style="display:inline;fill:#2affd5;fill-opacity:1;stroke:#1d1d1d;stroke-width:4;stroke-dasharray:none;stroke-opacity:1" nodetypes="sssss"/>
    <path id="iris_shadow_top_11_0_10" d="M79.91666666666667 164.66666666666666C79.91666666666667 164.66666666666666 100.58333333333334 143.66666666666666 113.91666666666667 140C130.91666666666666 134.33333333333334 150.58333333333334 136.33333333333334 167.58333333333334 142C179.25 145.66666666666666 198.91666666666666 165 198.91666666666666 165C199.91666666666666 144 194.04173333333333 91.59273533333334 137.37486 93.25940933333334C84.041322 94.59275000000001 79.58333333333333 154.66666666666666 79.91666666666667 164.66666666666666Z" label="iris_shadow_top" style="display:inline;fill:#2f4f4f;fill-opacity:1;stroke:none;stroke-opacity:0.899705" nodetypes="caacsc"/>
    <path id="pupil_11_0_10" d="M137.58333333333334 187C124.25 187 112.58333333333334 172.66666666666666 112.58333333333334 157.33333333333334C112.58333333333334 143 124.25 131.66666666666666 138.58333333333334 131.66666666666666C151.91666666666666 131.66666666666666 162.58333333333334 145 162.58333333333334 157.33333333333334C162.58333333333334 170.66666666666666 150.91666666666666 187 137.58333333333334 187Z" style="display:inline;fill:#0a0a0a;stroke-width:1.15464" label="pupil" nodetypes="sssas"/>
    <path id="glint_sm_11_0_10" d="M128.91666666666666 173C127.25 178.66666666666666 125.25 181.66666666666666 119.25 183.33333333333334C112.91666666666667 185.33333333333334 109.58333333333334 178.66666666666666 112.91666666666667 172C116.58333333333334 165.33333333333334 115.25 167.33333333333334 121.91666666666667 165.33333333333334C128.58333333333334 163.33333333333334 130.91666666666666 167.33333333333334 128.91666666666666 173Z" label="glint_sm" style="display:inline;fill:#ffffff;fill-opacity:1;stroke-width:0.849148" nodetypes="zzzzz"/>
    <path id="glint_lg_11_0_10" d="M170.91666666666666 146C169.25 153.33333333333334 161.25 162.33333333333334 154.91666666666666 164C143.25 167.66666666666666 137.91666666666666 153.66666666666666 138.91666666666666 146C140.58333333333334 137.33333333333334 152.25 133 159.58333333333334 133.66666666666666C170.91666666666666 135 172.25 138 170.91666666666666 146Z" style="display:inline;fill:#ffffff;fill-opacity:1;stroke-width:0.892652" label="glint_lg" nodetypes="sssas"/>
</g>

<g id="g_inner_eye_11_0_to_12" inkscape:groupmode="layer" inkscape:label="g_inner_eye_11_0_to_12" style="display:none">
    <path id="iris_11_0_12" d="M241.33333333333334 157.66666666666666C240.33333333333334 196.66666666666666 214.66666666666666 223.33333333333334 181.66666666666666 223.33333333333334C148.66666666666666 223.33333333333334 123.66666666666666 193.66666666666666 122 157.66666666666666C120.33333333333333 122.33333333333333 148.66666666666666 92 181.66666666666666 92C214.66666666666666 92 242.33333333333334 121.66666666666667 241.33333333333334 157.66666666666666Z" label="iris" style="display:inline;fill:#2affd5;fill-opacity:1;stroke:#1d1d1d;stroke-width:4;stroke-dasharray:none;stroke-opacity:1" nodetypes="sssss"/>
    <path id="iris_shadow_top_11_0_12" d="M123 163.66666666666666C123 163.66666666666666 143.66666666666666 142.66666666666666 157 139C174 133.33333333333334 193.66666666666666 135.33333333333334 210.66666666666666 141C222.33333333333334 144.66666666666666 242 164 242 164C243 143 237.12506666666667 90.92606866666667 180.45819333333336 92.25940933333334C125.791322 93.59275000000001 122.66666666666666 153.66666666666666 123 163.66666666666666Z" label="iris_shadow_top" style="display:inline;fill:#2f4f4f;fill-opacity:1;stroke:none;stroke-opacity:0.899705" nodetypes="caacsc"/>
    <path id="pupil_11_0_12" d="M184.66666666666666 186C171.33333333333334 186 159.66666666666666 171.66666666666666 159.66666666666666 156.33333333333334C159.66666666666666 142 171.33333333333334 130.66666666666666 185.66666666666666 130.66666666666666C199 130.66666666666666 209.66666666666666 144 209.66666666666666 156.33333333333334C209.66666666666666 169.66666666666666 198 186 184.66666666666666 186Z" style="display:inline;fill:#0a0a0a;stroke-width:1.15464" label="pupil" nodetypes="sssas"/>
    <path id="glint_sm_11_0_12" d="M176 172C174.33333333333334 177.66666666666666 172.33333333333334 180.66666666666666 166.33333333333334 182.33333333333334C160 184.33333333333334 156.66666666666666 177.66666666666666 160 171C163.66666666666666 164.33333333333334 162.33333333333334 166.33333333333334 169 164.33333333333334C175.66666666666666 162.33333333333334 178 166.33333333333334 176 172Z" label="glint_sm" style="display:inline;fill:#ffffff;fill-opacity:1;stroke-width:0.849148" nodetypes="zzzzz"/>
    <path id="glint_lg_11_0_12" d="M218 145C216.33333333333334 152.33333333333334 208.33333333333334 161.33333333333334 202 163C190.33333333333334 166.66666666666666 185 152.66666666666666 186 145C187.66666666666666 136.33333333333334 199.33333333333334 132 206.66666666666666 132.66666666666666C218 134 219.33333333333334 137 218 145Z" style="display:inline;fill:#ffffff;fill-opacity:1;stroke-width:0.892652" label="glint_lg" nodetypes="sssas"/>
</g>

<g id="g_inner_eye_11_1_to_10" inkscape:groupmode="layer" inkscape:label="g_inner_eye_11_1_to_10" style="display:none">
    <path id="iris_11_1_10" d="M170.5 158.33333333333334C169.5 195.33333333333334 147.16666666666669 220.66666666666666 118.16666666666667 220.66666666666666C89.16666666666667 220.66666666666666 67.16666666666667 192.33333333333334 65.83333333333334 158.33333333333334C64.5 124.66666666666667 89.16666666666667 96 118.16666666666667 96C147.16666666666669 96 171.5 124.33333333333333 170.5 158.33333333333334Z" label="iris" style="display:inline;fill:#2affd5;fill-opacity:1;stroke:#1d1d1d;stroke-width:4;stroke-dasharray:none;stroke-opacity:1" nodetypes="sssss"/>
    <path id="iris_shadow_top_11_1_10" d="M65.83333333333334 164.33333333333334C65.83333333333334 164.33333333333334 84.16666666666667 144.33333333333334 95.83333333333334 141C110.83333333333334 135.66666666666666 128.16666666666669 137.66666666666666 143.16666666666669 143C153.5 146.33333333333334 170.83333333333334 165 170.83333333333334 165C171.83333333333334 145 163.89586666666668 95.79636766666667 117.56243 96.62970466666667C77.895661 96.796375 65.16666666666667 144.33333333333334 65.83333333333334 164.33333333333334Z" label="iris_shadow_top" style="display:inline;fill:#2f4f4f;fill-opacity:1;stroke:none;stroke-opacity:0.899705" nodetypes="caacsc"/>
    <path id="pupil_11_1_10" d="M115.16666666666667 185C103.5 185 93.16666666666667 171.33333333333334 93.16666666666667 156.66666666666666C93.16666666666667 143 103.5 132.33333333333334 116.16666666666667 132.33333333333334C127.83333333333334 132.33333333333334 137.16666666666669 145 137.16666666666669 156.66666666666666C137.16666666666669 169.33333333333334 126.83333333333334 185 115.16666666666667 185Z" style="display:inline;fill:#0a0a0a;stroke-width:1.15464" label="pupil" nodetypes="sssas"/>
    <path id="glint_sm_11_1_10" d="M107.83333333333334 173C106.5 178.33333333333334 104.5 181.33333333333334 99.5 182.66666666666666C93.83333333333334 184.66666666666666 91.16666666666667 178.33333333333334 93.83333333333334 172C97.16666666666667 165.66666666666666 96.5 167.66666666666666 101.83333333333334 165.66666666666666C107.16666666666667 163.66666666666666 109.83333333333334 167.66666666666666 107.83333333333334 173Z" label="glint_sm" style="display:inline;fill:#ffffff;fill-opacity:1;stroke-width:0.849148" nodetypes="zzzzz"/>
    <path id="glint_lg_11_1_10" d="M145.83333333333334 144C143.5 150.66666666666666 137.5 159.66666666666666 131.83333333333334 161C121.5 164.33333333333334 116.83333333333334 151.33333333333334 117.83333333333334 144C119.16666666666667 135.66666666666666 129.5 132 136.16666666666669 132.33333333333334C146.83333333333334 133 148.5 136 145.83333333333334 144Z" style="display:inline;fill:#ffffff;fill-opacity:1;stroke-width:0.892652" label="glint_lg" nodetypes="sssas"/>
</g>

<g id="g_inner_eye_11_1_to_12" inkscape:groupmode="layer" inkscape:label="g_inner_eye_11_1_to_12" style="display:none">
    <path id="iris_11_1_12" d="M256.6666666666667 156.33333333333334C255.66666666666666 193.33333333333334 233.33333333333331 218.66666666666666 204.33333333333331 218.66666666666666C175.33333333333331 218.66666666666666 153.33333333333331 190.33333333333334 152 156.33333333333334C150.66666666666666 122.66666666666667 175.33333333333331 94 204.33333333333331 94C233.33333333333331 94 257.6666666666667 122.33333333333333 256.6666666666667 156.33333333333334Z" label="iris" style="display:inline;fill:#2affd5;fill-opacity:1;stroke:#1d1d1d;stroke-width:4;stroke-dasharray:none;stroke-opacity:1" nodetypes="sssss"/>
    <path id="iris_shadow_top_11_1_12" d="M152 162.33333333333334C152 162.33333333333334 170.33333333333331 142.33333333333334 182 139C197 133.66666666666666 214.33333333333331 135.66666666666666 229.33333333333331 141C239.66666666666666 144.33333333333334 257 163 257 163C258 143 250.06253333333333 94.46303433333334 203.72909666666666 94.62970466666667C161.395661 94.796375 151.33333333333331 142.33333333333334 152 162.33333333333334Z" label="iris_shadow_top" style="display:inline;fill:#2f4f4f;fill-opacity:1;stroke:none;stroke-opacity:0.899705" nodetypes="caacsc"/>
    <path id="pupil_11_1_12" d="M209.33333333333331 183C197.66666666666666 183 187.33333333333331 169.33333333333334 187.33333333333331 154.66666666666666C187.33333333333331 141 197.66666666666666 130.33333333333334 210.33333333333331 130.33333333333334C222 130.33333333333334 231.33333333333331 143 231.33333333333331 154.66666666666666C231.33333333333331 167.33333333333334 221 183 209.33333333333331 183Z" style="display:inline;fill:#0a0a0a;stroke-width:1.15464" label="pupil" nodetypes="sssas"/>
    <path id="glint_sm_11_1_12" d="M202 171C200.66666666666666 176.33333333333334 198.66666666666666 179.33333333333334 193.66666666666666 180.66666666666666C188 182.66666666666666 185.33333333333331 176.33333333333334 188 170C191.33333333333331 163.66666666666666 190.66666666666666 165.66666666666666 196 163.66666666666666C201.33333333333331 161.66666666666666 204 165.66666666666666 202 171Z" label="glint_sm" style="display:inline;fill:#ffffff;fill-opacity:1;stroke-width:0.849148" nodetypes="zzzzz"/>
    <path id="glint_lg_11_1_12" d="M240 142C237.66666666666666 148.66666666666666 231.66666666666666 157.66666666666666 226 159C215.66666666666666 162.33333333333334 211 149.33333333333334 212 142C213.33333333333331 133.66666666666666 223.66666666666666 130 230.33333333333331 130.33333333333334C241 131 242.66666666666666 134 240 142Z" style="display:inline;fill:#ffffff;fill-opacity:1;stroke-width:0.892652" label="glint_lg" nodetypes="sssas"/>
</g>

<g
     inkscape:groupmode="layer"
     id="g_inner_eye_10"
     inkscape:label="g_inner_eye_10"
     style="display:inline"><path
       id="iris_10"
       style="display:inline;fill:#2affd5;fill-opacity:1;stroke:#1d1d1d;stroke-width:3.04994;stroke-dasharray:none;stroke-opacity:1"
       d="m 142.75,158 c -1,35 -20,59 -45,59 -25,0 -44,-27 -45,-59 -1,-32 20,-59 45,-59 25,0 46,27 45,59 z"
       sodipodi:nodetypes="sssss"
       inkscape:label="iris" /><path
       style="display:inline;fill:#2f4f4f;fill-opacity:1;stroke:none;stroke-width:0.762485;stroke-opacity:0.899705"
       d="m 51.75,164 c 0,0 16,-19 26,-22 13,-5 28,-3 41,2 9,3 24,21 24,21 1,-19 -9,-65 -45,-65 -26,-1 -47,34 -46,64 z"
       id="iris_shadow_top_10"
       sodipodi:nodetypes="caacsc"
       inkscape:label="iris_shadow_top" /><path
       id="pupil_10"
       style="display:inline;fill:#0a0a0a;stroke-width:0.880395"
       d="m 92.75,183 c -10,0 -19,-13 -19,-27 0,-13 9,-23 20,-23 10,0 18,12 18,23 0,12 -9,27 -19,27 z"
       inkscape:label="pupil"
       sodipodi:nodetypes="sssas" /><path
       id="glint_sm_10"
       style="display:inline;fill:#ffffff;fill-opacity:1;stroke-width:0.647462"
       d="m 86.75,173 c -1,5 -3,8 -7,9 -5,2 -7,-4 -5,-10 3,-6 3,-4 7,-6 4,-2 7,2 5,7 z"
       sodipodi:nodetypes="zzzzz"
       inkscape:label="glint_sm" /><path
       id="glint_lg_10"
       style="display:inline;fill:#ffffff;fill-opacity:1;stroke-width:0.680634"
       d="m 120.75,142 c -3,6 -7,15 -12,16 -9,3 -13,-9 -12,-16 1,-8 10,-11 16,-11 10,0 12,3 8,11 z"
       sodipodi:nodetypes="sssas"
       inkscape:label="glint_lg" /></g><g
     inkscape:groupmode="layer"
     id="g_inner_eye_12"
     inkscape:label="g_inner_eye_12"
     style="display:inline"><path
       id="iris_12"
       style="display:inline;fill:#2affd5;fill-opacity:1;stroke:#1d1d1d;stroke-width:3.04994;stroke-dasharray:none;stroke-opacity:1"
       d="m 272,155 c -1,35 -20,59 -45,59 -25,0 -44,-27 -45,-59 -1,-32 20,-59 45,-59 25,0 46,27 45,59 z"
       sodipodi:nodetypes="sssss"
       inkscape:label="iris" /><path
       style="display:inline;fill:#2f4f4f;fill-opacity:1;stroke:none;stroke-width:0.762485;stroke-opacity:0.899705"
       d="m 181,161 c 0,0 16,-19 26,-22 13,-5 28,-3 41,2 9,3 24,21 24,21 1,-19 -9,-64 -45,-65 -30,-1 -47,34 -46,64 z"
       id="iris_shadow_top_12"
       sodipodi:nodetypes="caacsc"
       inkscape:label="iris_shadow_top" /><path
       id="pupil_12"
       style="display:inline;fill:#0a0a0a;stroke-width:0.880395"
       d="m 234,180 c -10,0 -19,-13 -19,-27 0,-13 9,-23 20,-23 10,0 18,12 18,23 0,12 -9,27 -19,27 z"
       inkscape:label="pupil"
       sodipodi:nodetypes="sssas" /><path
       id="glint_sm_12"
       style="display:inline;fill:#ffffff;fill-opacity:1;stroke-width:0.647462"
       d="m 228,170 c -1,5 -3,8 -7,9 -5,2 -7,-4 -5,-10 3,-6 3,-4 7,-6 4,-2 7,2 5,7 z"
       sodipodi:nodetypes="zzzzz"
       inkscape:label="glint_sm" /><path
       id="glint_lg_12"
       style="display:inline;fill:#ffffff;fill-opacity:1;stroke-width:0.680634"
       d="m 262,139 c -3,6 -7,15 -12,16 -9,3 -13,-9 -12,-16 1,-8 10,-11 16,-11 10,0 12,3 8,11 z"
       sodipodi:nodetypes="sssas"
       inkscape:label="glint_lg" /></g><g id="g_upper_lid_neutral" inkscape:groupmode="layer" inkscape:label="g_upper_lid_neutral">
    <path id="upper_lid_shadow_neutral" d="M157 96C189.31348 94.728575 221 102 251 120C270 131 289 147 289 147L289 147C291 148 300 174 244 211C244 211 258.599063 185.77472 263 172C264.851218 166.20578 269 160 266 154C257 134 231.929185 125.15022 211 120C171.51948 110.2847 127.862 115.68051 89.33332999999999 128.66667C72.97927000000001 134.17884 46 157 46 157C46 157 59.314610000000016 133.34187 70 125.66667C94.88532000000001 107.7918 126.38400999999999 97.204634 157 96Z" style="display:inline;fill:#1d1c4f;fill-opacity:1;stroke:none;stroke-opacity:1" label="upper_lid_shadow" nodetypes="accscaaaacaa"/>
    <path id="upper_lid_neutral" d="M255 102.33333C228.412532 84.596356 193.95361 78.321388 162 79C128.39835 79.713612 90.28665000000001 85.15195 65.33332999999999 107.66667C52.127700000000004 119.58176 45 157 45 157C45 157 77 125 97 115C117 105 141 99 163 98C189 97 214 104 238 114C257 122 289 148 289 148C289 148 270.787274 112.86531 255 102.33332999999999Z" label="upper_lid" nodetypes="aaacaaaca" style="display:inline;fill:#73369a;fill-opacity:1;stroke:#000000;stroke-width:1;stroke-dasharray:none;stroke-opacity:1"/>
    <path id="upper_lid_top_11" d="M265.666667 110.66667C265.666667 110.66667 234.185261 80.613131 214 75.333333C171.05517 64.100382 147.21325000000002 67.452513 108.33332999999999 80.66666599999999C90.00869999999998 86.89467499999999 59.66667000000001 112.33332999999999 59.66667000000001 112.33332999999999C59.66667000000001 112.33332999999999 108.55225000000002 88.16614499999999 135 82.99999999999999C157.57575 78.59018799999998 181.5045 77.19755299999998 204 81.99999999999999C226.168485 86.73263399999999 240.666667 100.66666999999998 265.666667 110.66666999999998Z" style="display:inline;fill:#6b8e23;fill-opacity:1;stroke:#000000;stroke-opacity:1" nodetypes="csscaac"/>
</g>
<g id="g_lower_lid_neutral" inkscape:groupmode="layer" inkscape:label="g_lower_lid_neutral">
    <path id="lower_lid_neutral" d="M249.33333299999998 210.66667C249.33333299999998 210.66667 226.88158299999998 239.55166 159.33334 239C91.7851 238.44834 60.66667000000001 205.33333 60.66667000000001 205.33333C60.66667000000001 205.33333 92.32241000000002 211.00579 108.33333000000002 211.33333C132.07939000000002 211.81911 155.58251 205.43146 179.33333000000002 205.33333C202.73409 205.23663 215.33333000000002 202.66666999999998 249.33333300000004 210.66666999999998Z" style="display:inline;fill:#6b8e23;fill-opacity:1;stroke:#000000;stroke-opacity:1" label="lower_lid" nodetypes="czcaac"/>
</g>
</svg>
